<?xml version="1.0" encoding="utf-8"?>
<!-- Generator: Adobe Illustrator 25.2.3, SVG Export Plug-In . SVG Version: 6.00 Build 0)  -->
<svg version="1.1" id="Capa_1" xmlns="http://www.w3.org/2000/svg" xmlns:xlink="http://www.w3.org/1999/xlink" x="0px" y="0px"
	 viewBox="0 0 190.4 190.4" style="enable-background:new 0 0 190.4 190.4;" xml:space="preserve">
<style type="text/css">
	.st0{fill:#20B2AA;}
</style>
<path class="st0" d="M88.4,32.6h13.9v69.5H49.5V88.2h38.9V32.6z M170.4,22.2v25.7c-6.5-10.4-15.2-19.4-25.5-26.4
	c-14.8-10-32-15.3-49.9-15.3c-23.8,0-46.1,9.3-62.9,26.1C15.3,49.1,6,71.4,6,95.2s9.3,46.1,26.1,62.9c16.8,16.8,39.2,26.1,62.9,26.1
	c3.9,0,7.8-0.3,11.6-0.7l-1.8-13.8c-3.2,0.4-6.5,0.6-9.8,0.6c-41.4,0-75.1-33.7-75.1-75.1S53.6,20.1,95,20.1
	c26.9,0,51.3,14.2,64.6,36.8h-24v13.9h48.7V22.2H170.4z M117.2,166.9l4.1,13.3c4.8-1.5,9.5-3.4,14-5.7l-6.3-12.4
	C125.2,164.1,121.2,165.7,117.2,166.9z M139.8,155.5l8.3,11.2c4-3,7.8-6.3,11.3-10l-10.1-9.6C146.4,150.1,143.2,153,139.8,155.5z
	 M157.3,137.2l11.5,7.8c2.8-4.2,5.3-8.6,7.3-13.2l-12.7-5.7C161.7,129.9,159.7,133.7,157.3,137.2z M169.8,101.5
	c-0.1,0.7-0.1,1.5-0.2,2.2l0,0c-0.4,3.5-1,7-1.9,10.4l13.5,3.5c1.3-4.8,2.1-9.8,2.5-14.8l0,0c0-0.4,0.1-0.8,0.1-1.3L169.8,101.5
	L169.8,101.5z"/>
</svg>
