<?xml version="1.0" encoding="utf-8"?>
<!-- Generator: Adobe Illustrator 25.2.3, SVG Export Plug-In . SVG Version: 6.00 Build 0)  -->
<svg version="1.1" id="Layer_1" xmlns="http://www.w3.org/2000/svg" xmlns:xlink="http://www.w3.org/1999/xlink" x="0px" y="0px"
	 viewBox="0 0 406 306" style="enable-background:new 0 0 406 306;" xml:space="preserve">
<style type="text/css">
	.st0{opacity:0.18;fill:#20B2AA;enable-background:new    ;}
	.st1{fill:#473F47;}
	.st2{fill:#FFFFFF;}
	.st3{fill:#9F685D;}
	.st4{fill:#77433C;}
	.st5{fill:#20B2AA;}
	.st6{fill:url(#SVGID_1_);}
	.st7{fill:#FAB8AC;}
	.st8{fill:#DB9E94;}
	.st9{opacity:0.41;fill:#20B2AA;enable-background:new    ;}
	.st10{fill:url(#SVGID_2_);}
	.st11{fill:#FB682D;}
	.st12{fill:#FCFCFC;}
</style>
<path class="st0" d="M158.3,10.7c-17.2,10.9-28.8,28.6-39.1,46.2c-7.6,13-14.9,26.3-24.4,38c-4.1,5-9.1,11.4-14.8,14.5
	c-5.8,3-12.7,4.2-18.7,7.6c-23.4,13.3-40.1,38.6-41.4,65.7c-0.3,8.6,0.4,17.2,1.9,25.7c2.8,17.9,7.5,36.1,18.5,50.5
	c13.8,18.1,34.4,25.2,52.9,36.9c19.3,12.3,45.9,11.1,68,8.7c25.6-3,50.9-9.4,76.7-9.6c26.1-0.2,53.4,5.7,77.4-4.6
	c9.4-4,17.6-10.3,25.7-16.6c14.4-11.1,29.2-22.7,37.2-39c4.8-9.8,6.8-20.7,7.6-31.5c3.4-41.6-10.5-86-42.4-113
	c-12-10.2-26.2-17.7-37.4-28.7c-13.1-12.9-21.7-30.1-35.7-42.1C245.4-2,186.1-6.8,158.3,10.7z"/>
<path class="st1" d="M138.5,113.3c-0.4,3.2-4.2,8.2-4.2,8.2c-1.9-1.9-1.1-3.5-1.1-3.5c1.4-0.6,1.3-4.7,0.2-5.4
	c-1.4-0.8-2.1,0.1-2.4,1c-1.9-0.3-3.6-1.3-4.7-2.9c-0.6-0.9-0.5-4.6-4.4-4c-3.9,0.6-7.7,4.4-7.7,4.4c-0.2,0.2-1.1-1.8-1.1-1.9
	c-0.2-1.1-0.1-2.3,0.4-3.3c0.6-1.1,2.1-1.8,3.2-2.5c1.6-1,3.2-2,4.8-2.9c1.6-1.1,3.4-1.8,5.3-2.1c3.6-0.4,7,1.9,9.4,4.3
	c2.4,2.5,3.3,6.4,7.3,7c0.4,0,0.8,0.1,1.1,0.3c0.3,0.4,0.5,0.9,0.4,1.4v3.1c-0.1,0.6,0.1,1.1,0.4,1.6c0.5,0.5,1.3,0.5,2,0.8
	c1.2,0.7,1.9,1.9,1.9,3.3c-0.1,1.3,0,2.6,0.2,4c0.2,0.9,0.7,1.6,1,2.5c0.5,2,0.3,4.1-0.4,6c-1,3-2.6,5.7-4.9,8
	c-2.3,2.2-5.3,3.5-8.4,3.7c-1.2-0.1-2.4,0.1-3.5,0.5c-0.6,0.5-1.1,1-1.6,1.7c-1.9,1.8-4.3,2.8-6.9,2.9c-2,0.3-4-0.1-5.7-1.1
	c-1.6-1.1-2.4-3.6-1.3-5.2c0.3-0.4,0.8-0.9,0.6-1.4c-0.1-0.2-0.3-0.5-0.5-0.6c-1.3-1.3-1.2-3.5,0.1-4.7c0.1-0.1,0.2-0.2,0.4-0.3
	c-1.4-1.6-1.3-4.1,0.3-5.5c-0.7-0.7-1.5-1.2-2.4-1.6c-0.9-0.5-1.4-1.4-1.2-2.4c0.2-0.4,0.5-0.8,0.8-1.2c0.7-1.4-0.6-4.7-1.2-6.1
	c-1.1-2.6-2.6-4.2-1.8-7.3c1-4,4.6-6.8,8.5-8.2c3.1-1.1,10.4-3.1,13.1-1.3C137,104.2,138.8,110,138.5,113.3z"/>
<path class="st2" d="M124.6,134.3c0.2-0.2,0.5-0.4,0.7-0.6c1.4-0.8,2.9-1.5,4.5-2.2c2-1,3.9-2.1,5.9-3.2c3.6-2.2,9.5-6,15.1-3.9
	c5.6,2.2,7.2,8.8,8.2,14c0.5,2.6,0.2,5.2,0.6,7.7c0.5,3,2.9,6.2,4.6,8.7c0.4,0.6,0.9,1.1,1.4,1.6c1.1,0.9,2.8,1.1,3.9,2.2
	c1,1.2,1.3,2.9,0.7,4.4c-0.6,1.5-1.4,2.8-2.5,3.9c-1.2,1.5-2.4,3-3.8,4.3c-4.3,4.4-9.5,7.8-15.3,9.9c-0.4,0.2-0.8,0.3-1.3,0.2
	c-0.6-0.2-0.9-0.8-1.1-1.4c-1.8-4.4-4.3-8.4-7.5-11.8c-2.8-3.1-6.5-4.7-9.2-7.9c-1.6-2-4.3-5.2-4.6-7.8c0-0.4,0.3-0.9,0.1-1.3
	c-0.2-0.4-1.3-0.9-1.7-1.2c-1.4-1-2.7-2.1-3.9-3.3c-0.2-0.2-0.4-0.4-0.4-0.7c0-0.2,0-0.5,0.1-0.7c0.8-2.1,1.7-4.2,2.7-6.2
	C122.6,137.3,123.5,135.7,124.6,134.3z"/>
<path class="st3" d="M132.2,117.8c0.6,2.9-0.2,9-4.4,10c1.8,1.1,2.8,3.1,2.6,5.2c0,0,2.9,2.4,8.4-6.7c0,0-2.2,1.1-4.2-3.8
	c-0.7-1.6-1-3.4-0.8-5.2c-0.1,0.5-0.6,0.8-1.1,0.7C132.5,118,132.4,117.9,132.2,117.8z"/>
<path class="st4" d="M132.6,119.3c0,0,2.5,8.5-0.7,9.9c-3.2,1.4-5.6-3.3-5.6-3.3L132.6,119.3z"/>
<path class="st1" d="M114.2,105.3c0,0-4.7,3.1-2.2,11s9.6,3.8,9.6,3.8l-2.7-14.7L114.2,105.3z"/>
<path class="st3" d="M130.7,126.8c-4.2,2.9-9.3,0.3-12.8-4.8c-0.4-0.6-0.7-1.1-1.1-1.8c-1-1.8-1.8-3.6-2.4-5.6
	c-2.8-9.4,10.9-12.7,10.9-12.7C136.9,100.8,138,121.8,130.7,126.8z"/>
<path class="st1" d="M137.4,121.7l0.8-2.6c0.4-1.2,0.7-2.4,0.9-3.6"/>
<path class="st2" d="M155.6,125.6c1.4,1.3,2.7,2.7,3.8,4.3l1.6,2.1c0.4,0.4,0.6,0.9,0.7,1.4c0.1,1-1.6,1.5-2.2,2.1l-3.7,2.9
	c-2.4,1.9-4.8,3.8-7.2,5.6c-0.9-1.3-1.7-2.6-2.2-4.1c-0.5-1.4-0.6-2.9-1-4.3c-0.3-1.2-0.8-2.2-1.1-3.4c-0.7-2.4-0.4-5,0.6-7.4
	c1.6-3.6,8.5-1,10.6,0.7L155.6,125.6z"/>
<path class="st5" d="M307.1,134l-0.2-0.1c-1.6-0.9-3.3-1.6-5-2.5c-2-1-3.9-2.1-5.9-3.2c-3.6-2.2-9.5-6-15.1-3.9s-7.2,8.8-8.2,14
	c-0.5,2.6-0.2,5.2-0.6,7.7c-0.6,3-2.9,6.2-4.6,8.7c-0.4,0.6-0.9,1.1-1.4,1.6c-1.2,0.9-2.8,1.1-3.9,2.2c-2.5,2.5,0,6.4,1.9,8.4
	c2.2,2.1,4.2,4.5,5.9,7.1c4.2,6.7,8.5,13.7,9.5,21.6l8.6-20.6c1.2-3.1,2.7-6,4.5-8.8c3.8-4.9,8.9-8.6,14.7-10.8
	c5.5-1.8,11.4,1.3,16.9-0.5c4.7-1.6,7.5-6.4,9.8-10.8c2.8-5.5,5.6-11.1,5.7-17.3c0-0.3-5.1-1.4-5.6-1.5c-0.7-0.2-2.2-0.8-3-0.6
	c-0.7,0.2-0.7,0.7-0.8,1.5c-0.6,3.7-2.5,7-4.3,10.2l-2.7,4.7c-0.1,0.2-0.2,0.4-0.4,0.5c-0.2,0.1-0.4,0.2-0.7,0.2
	c-4.4,0.3-8.7-1.3-11.8-4.4C309.4,136.1,308.3,135,307.1,134z"/>
<linearGradient id="SVGID_1_" gradientUnits="userSpaceOnUse" x1="180.6266" y1="164.5937" x2="251.0812" y2="164.5937" gradientTransform="matrix(1.1147 0 0 -1.1147 59.7022 343.1006)">
	<stop  offset="1.000000e-02" style="stop-color:#000000"/>
	<stop  offset="8.000000e-02" style="stop-color:#000000;stop-opacity:0.69"/>
	<stop  offset="0.21" style="stop-color:#000000;stop-opacity:0.32"/>
	<stop  offset="1" style="stop-color:#000000;stop-opacity:0"/>
</linearGradient>
<path class="st6" d="M307.1,134l-0.2-0.1c-1.6-0.9-3.3-1.6-5-2.5c-2-1-3.9-2.1-5.9-3.2c-3.6-2.2-9.5-6-15.1-3.9s-7.2,8.8-8.2,14
	c-0.5,2.6-0.2,5.2-0.6,7.7c-0.6,3-2.9,6.2-4.6,8.7c-0.4,0.6-0.9,1.1-1.4,1.6c-1.2,0.9-2.8,1.1-3.9,2.2c-2.5,2.5,0,6.4,1.9,8.4
	c2.2,2.1,4.2,4.5,5.9,7.1c4.2,6.7,8.5,13.7,9.5,21.6l8.6-20.6c1.2-3.1,2.7-6,4.5-8.8c3.8-4.9,8.9-8.6,14.7-10.8
	c5.5-1.8,11.4,1.3,16.9-0.5c4.7-1.6,7.5-6.4,9.8-10.8c2.8-5.5,5.6-11.1,5.7-17.3c0-0.3-5.1-1.4-5.6-1.5c-0.7-0.2-2.2-0.8-3-0.6
	c-0.7,0.2-0.7,0.7-0.8,1.5c-0.6,3.7-2.5,7-4.3,10.2l-2.7,4.7c-0.1,0.2-0.2,0.4-0.4,0.5c-0.2,0.1-0.4,0.2-0.7,0.2
	c-4.4,0.3-8.7-1.3-11.8-4.4C309.4,136.1,308.3,135,307.1,134z"/>
<path class="st7" d="M299.3,117.7c-0.6,2.9,0.2,9,4.5,10.1c-1.8,1.1-2.8,3.1-2.6,5.2c0,0-2.9,2.4-8.4-6.7c0,0,2.3,1,4.2-3.8
	c0.7-1.6,1-3.4,0.8-5.2c0.2,0.5,0.7,0.7,1.2,0.6C299.1,117.9,299.3,117.8,299.3,117.7z"/>
<path class="st8" d="M299,119.2c0,0-2.5,8.5,0.7,9.9c3.2,1.4,5.6-3.3,5.6-3.3L299,119.2z"/>
<path class="st7" d="M300.9,126.7c4.2,2.9,9.3,0.3,12.8-4.9c0.4-0.6,0.7-1.1,1.1-1.8c1-1.8,1.8-3.6,2.4-5.6
	c2.8-9.4-10.9-12.7-10.9-12.7C294.7,100.7,293.6,121.7,300.9,126.7z"/>
<path class="st5" d="M163.6,24.7h98.5c11,0,19.9,8.9,19.9,19.9v227.6c0,11-8.9,19.9-19.9,19.9h-98.5c-11,0-19.9-8.9-19.9-19.9V44.5
	C143.7,33.6,152.6,24.7,163.6,24.7z"/>
<path class="st1" d="M165.6,28H260c10.6,0,19.2,8.6,19.2,19.2V269c0,10.6-8.6,19.2-19.2,19.2h-94.4c-10.6,0-19.2-8.6-19.2-19.2V47.2
	C146.4,36.6,155,28,165.6,28z"/>
<path class="st2" d="M275.6,49.4v214.7c-0.1,10.1-8.4,18.3-18.5,18.2h-88.4c-3.2,0-6.4-0.8-9.2-2.4c-5.7-3.2-9.3-9.2-9.3-15.8V49.4
	c0.1-10.1,8.4-18.2,18.6-18.1h15v2.6c0.1,3.5,2.3,6.7,5.6,8c1.1,0.4,2.2,0.6,3.4,0.6h41.1c4.9,0,8.8-3.9,8.9-8.8v-2.5h14.5
	c4.8,0,9.3,1.8,12.8,5C273.5,39.7,275.6,44.5,275.6,49.4z"/>
<rect x="153.2" y="196.7" class="st9" width="119.6" height="31.6"/>
<circle class="st5" cx="168.9" cy="214.7" r="9.5"/>
<path class="st5" d="M190,206.4h65.6c1.4,0,2.5,1.1,2.5,2.5l0,0c0,1.4-1.1,2.5-2.5,2.5H190c-1.4,0-2.5-1.1-2.5-2.5l0,0
	C187.5,207.5,188.6,206.4,190,206.4z"/>
<path class="st5" d="M190,217.7h37.2c1.4,0,2.5,1.1,2.5,2.5l0,0c0,1.4-1.1,2.5-2.5,2.5H190c-1.4,0-2.5-1.1-2.5-2.5l0,0
	C187.5,218.8,188.6,217.7,190,217.7z"/>
<rect x="153.2" y="113.9" class="st9" width="119.6" height="38.7"/>
<circle class="st5" cx="168.9" cy="132.2" r="9.5"/>
<path class="st5" d="M190,123.5h65.6c1.4,0,2.5,1.1,2.5,2.5l0,0c0,1.4-1.1,2.5-2.5,2.5H190c-1.4,0-2.5-1.1-2.5-2.5l0,0
	C187.5,124.6,188.6,123.5,190,123.5z"/>
<path class="st5" d="M190,134.8h37.2c1.4,0,2.5,1.1,2.5,2.5l0,0c0,1.4-1.1,2.5-2.5,2.5H190c-1.4,0-2.5-1.1-2.5-2.5l0,0
	C187.5,135.9,188.6,134.8,190,134.8z"/>
<path class="st5" d="M275.6,49.4V67H150.1V49.4c0.1-10.1,8.4-18.2,18.6-18.1h15v2.6c0.1,3.5,2.3,6.7,5.6,8c1.1,0.4,2.2,0.6,3.4,0.6
	h41.1c4.9,0,8.8-3.9,8.9-8.8v-2.5h14.5c4.8,0,9.3,1.8,12.8,5C273.5,39.7,275.6,44.5,275.6,49.4z"/>
<linearGradient id="SVGID_2_" gradientUnits="userSpaceOnUse" x1="137.3962" y1="374.9626" x2="137.3962" y2="-300.7773" gradientTransform="matrix(1.1147 0 0 -1.1147 59.7022 343.1006)">
	<stop  offset="1.000000e-02" style="stop-color:#000000"/>
	<stop  offset="8.000000e-02" style="stop-color:#000000;stop-opacity:0.69"/>
	<stop  offset="0.21" style="stop-color:#000000;stop-opacity:0.32"/>
	<stop  offset="1" style="stop-color:#000000;stop-opacity:0"/>
</linearGradient>
<path class="st10" d="M275.6,49.4V67H150.1V49.4c0.1-10.1,8.4-18.2,18.6-18.1h15v2.6c0.1,3.5,2.3,6.7,5.6,8c1.1,0.4,2.2,0.6,3.4,0.6
	h41.1c4.9,0,8.8-3.9,8.9-8.8v-2.5h14.5c4.8,0,9.3,1.8,12.8,5C273.5,39.7,275.6,44.5,275.6,49.4z"/>
<rect x="158.3" y="53.2" class="st5" width="58.4" height="10.4"/>
<path class="st5" d="M239.3,56h23.1c1.1,0,2.1,0.9,2.1,2.1l0,0c0,1.1-0.9,2.1-2.1,2.1h-23.1c-1.1,0-2.1-0.9-2.1-2.1l0,0
	C237.2,56.9,238.1,56,239.3,56z"/>
<circle class="st5" cx="228.5" cy="58" r="6.1"/>
<rect x="153.2" y="74.5" class="st9" width="119.6" height="34.5"/>
<circle class="st5" cx="168.9" cy="92.5" r="9.5"/>
<path class="st5" d="M190,84.1h65.6c1.4,0,2.5,1.1,2.5,2.5l0,0c0,1.4-1.1,2.5-2.5,2.5H190c-1.4,0-2.5-1.1-2.5-2.5l0,0
	C187.5,85.3,188.6,84.1,190,84.1z"/>
<path class="st5" d="M190,95.4h37.2c1.4,0,2.5,1.1,2.5,2.5l0,0c0,1.4-1.1,2.5-2.5,2.5H190c-1.4,0-2.5-1.1-2.5-2.5l0,0
	C187.5,96.6,188.6,95.4,190,95.4z"/>
<path class="st1" d="M116,110.3c0.2,0.2,0.5,0.3,0.8,0.4c2.9,1.1,5.9,1.5,9,1.1c0.7,0,1.5-0.2,2.1-0.5c0.7-0.3,1.2-0.9,1.4-1.6
	c0.1-0.5,0-1,0.1-1.5c1.7,1.1,3.6,2.5,4.1,4.6c-0.2-0.4-0.3-0.7-0.3-1.1c0-0.4,0.2-0.7,0.6-0.9c0.6-0.2,1.1,0.5,1.2,1.1
	c0.3,1.5-0.5,2.9-0.6,4.3c-0.2,1.5-0.2,3.1-0.2,4.6c0,0.5,0,1.1,0.2,1.6c0.2,0.5,0.6,0.9,1,1.2c0.3-1.1,0.7-2.1,1-3.2
	c0.4-0.9,0.7-1.9,0.9-2.8c0.5-1.3,0.9-2.7,1.1-4.1c0.2-1.1,0-2.2-0.5-3.2c-0.6-0.9-1.2-1.9-1.6-2.9c-0.4-1.3-0.9-2.6-1.6-3.8
	c-0.7-1.2-1.7-2.2-3-2.8c-0.8-0.3-1.6-0.4-2.4-0.5c-2.8-0.2-5.6,0.2-8.2,1.2c-2,0.8-3.8,2.1-5.2,3.7c-1,1.2-1.5,2.1-0.9,3.7
	C115.2,109.4,115.5,109.9,116,110.3z"/>
<path class="st3" d="M117.5,124.8c0.8,0.4,1.7,0.5,2.6,0.5c0.1,0,0.1,0,0.2-0.1c0,0,0-0.1,0-0.1c0-0.2-0.1-0.4-0.2-0.6
	c-0.7-1-2-4.1-3.7-3.4c-0.7,0.3-1,1.2-0.7,1.9c0,0,0,0.1,0,0.1C116.1,123.9,116.9,124.1,117.5,124.8z"/>
<path class="st3" d="M116.5,160.2c-0.2,1.2,0,2.5,0.6,3.5c1,1.1,2.4,1.7,3.8,1.6c5.2,0.5,10.5-0.4,15.3-2.6
	c3.4-1.6,6.7-3.9,10.4-4.1c0.7,0,1.3-0.1,2-0.3c0.8-0.4,1.5-1.2,1.8-2.1c0.7-1.9,0.5-4-0.6-5.7c-0.8-1.4-2.4-2.2-4.1-2
	c-1.9,0.5-2.8,2.6-4,4c-1.9,2.1-4.9,2.9-7.8,3.1c-2.9,0.3-5.8,0.1-8.5,1l1.6-2.8c0.2-0.3,0.3-0.6,0.3-1c-0.1-0.6-0.7-0.9-1.2-1.1
	c-1.5-0.7-2.9-1.6-4.2-2.7c-1.5-1.2-2.1-2-3,0.2C117.5,152.8,116.7,156.5,116.5,160.2z"/>
<path class="st7" d="M332.1,126.6c0.6,0.7,1.5,1.2,2.4,1.3c0.6,0,1.2,0,1.8-0.2c0.4-0.1,0.8-0.2,1.1-0.3c0.5-0.3,1-0.7,1.4-1.2
	c0.9-1,1.7-2,2.5-3.1c0.2-0.2,0.3-0.5,0.4-0.8c0-0.1,0-0.2,0-0.2c-0.1-0.1-0.2-0.2-0.4-0.2c-0.8,0-1.3,1-2.1,1.1
	c0.5-0.8,1.1-1.4,1.6-2.1c0.6-0.7,0.9-1.6,0.8-2.5c0-0.1,0-0.1-0.1-0.2c-0.1-0.1-0.3,0-0.5,0.1c-1,0.8-1.6,2-2.7,2.4
	c0.2-0.7,0.5-1.4,0.9-2.1c0.4-1,0.6-2.1,0.5-3.1c0-0.1,0-0.3-0.2-0.3s-0.1,0-0.2,0.1c-0.7,0.6-1.2,1.4-1.5,2.2
	c-0.4,0.7-0.9,1.4-1.6,2c0.1-1,0.2-2.1,0.2-3.1c0-0.4-0.1-0.8-0.4-0.9c-0.5-0.1-0.9,0.9-1,1.2c-0.2,0.7-0.3,1.5-0.4,2.2
	c0,0.3-0.1,0.6-0.1,1c-0.2,1.3-0.8,2.5-1.8,3.3c-0.3-0.6-0.6-1.2-0.7-1.8c-0.1-0.3-0.2-0.5-0.4-0.7c-0.2-0.2-0.5-0.2-0.7-0.1
	c-0.1,0.1-0.2,0.3-0.2,0.4c-0.1,0.9,0,1.9,0.4,2.8C331.3,124.8,331.6,125.7,332.1,126.6z"/>
<path class="st11" d="M309.9,97.8c-1.7,0-3.4,0.1-5.1,0.5c-1.3,0.1-2.5,0.5-3.7,1c-1,0.6-1.8,1.3-2.5,2.2c-2.7,3.5-3.7,8-2.5,12.3
	c-0.3-2,1.2-3.8,2.6-5.2l2.4-2.6c0.2-0.3,0.5-0.5,0.8-0.7c1.2-0.5,2.6-0.2,3.4,0.8c0.9,0.9,1.5,2.1,2.4,3c2,1.9,5,2.1,7.6,3.1
	c0.4,0.1,0.8,0.4,1,0.7c0.2,0.5,0.2,1,0.1,1.5l-1,4.6c2.7-2.5,4.7-5.5,6.1-8.8c1.1-2.6-1.2-6.1-3-8.1
	C316.4,99.5,313.3,98,309.9,97.8z"/>
<rect x="153" y="155.3" class="st9" width="119.6" height="38.7"/>
<circle class="st5" cx="168.9" cy="174.6" r="9.5"/>
<path class="st5" d="M190,179.6h37.2c1.4,0,2.5,1.1,2.5,2.5l0,0c0,1.4-1.1,2.5-2.5,2.5H190c-1.4,0-2.5-1.1-2.5-2.5l0,0
	C187.5,180.7,188.6,179.6,190,179.6z"/>
<path class="st5" d="M189.6,162.6h65.6c1.4,0,2.5,1.1,2.5,2.5l0,0c0,1.4-1.1,2.5-2.5,2.5h-65.6c-1.4,0-2.5-1.1-2.5-2.5l0,0
	C187.1,163.7,188.2,162.6,189.6,162.6z"/>
<path class="st5" d="M171.3,96.1l0.2,113.7c0,2.4-1.1,4.3-2.5,4.4l0,0c-1.4,0-2.5-1.9-2.5-4.3l-0.2-113.7c0-2.4,1.1-4.3,2.5-4.4l0,0
	C170.2,91.8,171.3,93.7,171.3,96.1z"/>
<path class="st12" d="M168.9,204.9c-5.5,0-10,4.5-10,10c0,5.5,4.5,10,10,10c5.5,0,10-4.5,10-10C178.9,209.4,174.4,204.9,168.9,204.9
	z M168.9,222.9c-4.4,0-8-3.6-8-8c0-4.4,3.6-8,8-8s8,3.6,8,8C176.9,219.3,173.3,222.9,168.9,222.9z"/>
<path class="st2" d="M166.9,216.5l-2.3-2.3l-1.4,1.4l3.7,3.7l6.7-6.7l-1.4-1.4L166.9,216.5z"/>
<path class="st12" d="M168.9,164.6c-5.5,0-10,4.5-10,10c0,5.5,4.5,10,10,10c5.5,0,10-4.5,10-10C178.9,169.1,174.4,164.6,168.9,164.6
	z M168.9,182.6c-4.4,0-8-3.6-8-8c0-4.4,3.6-8,8-8s8,3.6,8,8C176.9,179.1,173.3,182.6,168.9,182.6z"/>
<path class="st2" d="M167.4,175.9l-2.3-2.3l-1.4,1.4l3.7,3.7l6.7-6.7l-1.4-1.4L167.4,175.9z"/>
<path class="st12" d="M168.9,122.2c-5.5,0-10,4.5-10,10c0,5.5,4.5,10,10,10c5.5,0,10-4.5,10-10C178.9,126.7,174.4,122.2,168.9,122.2
	z M168.9,140.2c-4.4,0-8-3.6-8-8c0-4.4,3.6-8,8-8s8,3.6,8,8C176.9,136.6,173.3,140.2,168.9,140.2z"/>
<path class="st2" d="M167.6,133.4l-2.3-2.3l-1.4,1.4l3.7,3.7l6.7-6.7l-1.4-1.4L167.6,133.4z"/>
<path class="st12" d="M168.9,82.5c-5.5,0-10,4.5-10,10s4.5,10,10,10c5.5,0,10-4.5,10-10S174.4,82.5,168.9,82.5z M168.9,100.5
	c-4.4,0-8-3.6-8-8c0-4.4,3.6-8,8-8s8,3.6,8,8C176.9,96.9,173.3,100.5,168.9,100.5z"/>
<path class="st2" d="M167.6,93.8l-2.3-2.3l-1.4,1.4l3.7,3.7l6.7-6.7l-1.4-1.4L167.6,93.8z"/>
</svg>
