<?xml version="1.0" encoding="utf-8"?>
<!-- Generator: Adobe Illustrator 25.2.3, SVG Export Plug-In . SVG Version: 6.00 Build 0)  -->
<svg version="1.1" id="Слой_1" xmlns="http://www.w3.org/2000/svg" xmlns:xlink="http://www.w3.org/1999/xlink" x="0px" y="0px"
	 viewBox="0 0 384.8 384.8" style="enable-background:new 0 0 384.8 384.8;" xml:space="preserve">
<style type="text/css">
	.st0{fill-rule:evenodd;clip-rule:evenodd;fill:#FFFFFF;}
	.st1{fill-rule:evenodd;clip-rule:evenodd;fill:#F2F2F2;}
	.st2{fill-rule:evenodd;clip-rule:evenodd;fill:#FFFFFF;stroke:#83BF5E;stroke-width:0.216;stroke-miterlimit:22.9256;}
	.st3{fill:#FFFFFF;}
	.st4{fill:#FBFCFB;}
</style>
<g>
	<g>
		<polygon class="st0" points="147.6,184.8 189.7,208.7 147.6,233.2 		"/>
		<polygon class="st1" points="189.6,257 189.6,208.8 147.5,233.3 		"/>
	</g>
	<g>
		<polygon class="st0" points="99.6,157.5 141.7,181.4 99.6,206 		"/>
		<polygon class="st1" points="141.6,229.8 141.6,181.5 99.6,206 		"/>
	</g>
	<g>
		<polygon class="st0" points="147.6,129.7 189.7,153.6 147.6,178.1 		"/>
		<polygon class="st1" points="189.6,201.9 189.6,153.6 147.5,178.2 		"/>
	</g>
	<g>
		<polygon class="st0" points="99.6,102.4 141.7,126.3 99.6,150.9 		"/>
		<polygon class="st1" points="141.6,174.7 141.6,126.4 99.6,150.9 		"/>
	</g>
	<g>
		<polygon class="st0" points="147.7,74.5 189.8,98.4 147.7,123 		"/>
		<polygon class="st1" points="189.7,146.8 189.7,98.5 147.6,123 		"/>
	</g>
	<g>
		<polygon class="st0" points="237.6,184.8 195.5,208.7 237.6,233.2 		"/>
		<polygon class="st1" points="195.6,257 195.6,208.8 237.6,233.3 		"/>
	</g>
	<g>
		<polygon class="st0" points="285.6,157.5 243.5,181.4 285.6,206 		"/>
		<polygon class="st1" points="243.5,229.8 243.5,181.5 285.6,206 		"/>
	</g>
	<g>
		<polygon class="st0" points="237.6,129.7 195.5,153.6 237.6,178.1 		"/>
		<polygon class="st1" points="195.6,201.9 195.6,153.6 237.6,178.2 		"/>
	</g>
	<g>
		<polygon class="st0" points="285.6,102.4 243.5,126.3 285.6,150.9 		"/>
		<polygon class="st1" points="243.5,174.7 243.5,126.4 285.6,150.9 		"/>
	</g>
	<g>
		<polygon class="st0" points="237.5,74.5 195.4,98.4 237.5,123 		"/>
		<polygon class="st1" points="195.4,146.8 195.4,98.5 237.5,123 		"/>
	</g>
	<g>
		<polygon class="st2" points="192.3,8.5 216.6,50.4 167.8,50.3 		"/>
		<polygon class="st1" points="192.1,92.1 216.5,50.4 167.8,50.3 		"/>
	</g>
</g>
<g>
	<path class="st3" d="M111.8,311h-8.9v-35.5h-4.7V311h-8.9v-43.6h22.5V311z"/>
	<path class="st3" d="M137.6,293.8c0,3.4-1.8,5.6-5.9,5.6H124V311h-8.6v-43.6h16.4c4.1,0,5.9,2.2,5.9,5.6L137.6,293.8L137.6,293.8z
		 M124,275v17.2h4.3c0.7,0,0.8-0.2,0.8-0.9v-15.5c0-0.5-0.2-0.8-0.8-0.8L124,275L124,275z"/>
	<path class="st3" d="M149.9,294.2l5.3-25v-1.8h8.9V311h-8.9v-26.8l-5.3,25v1.8H141v-43.6h8.9V294.2z"/>
	<path class="st3" d="M167.8,267.4h16.9l1.5,8.1h-9.5v10.4h7.2v7.5h-7.2v9.5h9.1l-1.5,8.1h-16.6v-43.6H167.8z"/>
	<path class="st3" d="M197.6,290.5V311h-8.5v-43.6h9.2l4.7,18.5l4.7-18.5h9.2V311h-8.5v-20.5l-5.5,17.4L197.6,290.5z"/>
	<path class="st3" d="M243.2,311h-8.9v-17.4h-4.7V311h-8.9v-43.6h8.9v18.7h4.7v-18.7h8.9V311z"/>
	<path class="st3" d="M255.1,305.6l-0.8,5.4h-8.8l7.9-43.6h9.3l7.9,43.6h-8.8l-0.8-5.4H255.1z M256.1,298.7h4l-2-15.5L256.1,298.7z"
		/>
	<path class="st3" d="M273,273.2c0-3.9,1.9-5.8,5.8-5.8h16.6V311h-8.5v-13.7h-1.1c-1.6,0-2,1.5-2.3,2.9l-2.6,10.9H272l2.8-11
		c0.3-1.3,1-2.7,2.3-3.2c-2.2,0-4-1.4-4-3.7L273,273.2L273,273.2z M282.4,275c-0.6,0-0.8,0.4-0.8,0.9v13.3c0,0.7,0.2,0.9,0.8,0.9
		h4.4V275H282.4z"/>
</g>
<path class="st4" d="M99.4,351.5h1.1l5.3-16.6c0.3-0.9,1-1.2,1.8-1.2h6.1l1.4,7.7h-2.9c-0.4,0-0.5,0.1-0.6,0.4l-3.3,11l6.5,22.4
	h-9.2L101,358h-1.7v17.2H91v-41.4h8.4V351.5L99.4,351.5z"/>
<path class="st4" d="M150.4,355.6v19.5h-8v-41.4h8.7l4.5,17.6l4.5-17.6h8.8v41.4h-8v-19.5l-5.2,16.5L150.4,355.6z"/>
<path class="st4" d="M193.6,375.1h-8.4v-33.8h-4.5v33.8h-8.4v-41.4h21.4v41.4H193.6z"/>
<path class="st4" d="M205,370l-0.7,5.1H196l7.5-41.4h8.8l7.5,41.4h-8.3l-0.7-5.1H205z M205.9,363.4h3.8l-1.9-14.8L205.9,363.4z"/>
<path class="st4" d="M243.4,375.1H235v-16.5h-4.5v16.5H222v-41.4h8.4v17.8h4.5v-17.8h8.4v41.4H243.4z"/>
<path class="st4" d="M255.2,359.1l5.1-23.8v-1.7h8.4V375h-8.4v-25.4l-5.1,23.7v1.7h-8.4v-41.4h8.4L255.2,359.1L255.2,359.1z"/>
<path class="st4" d="M272.1,339.2c0-3.7,1.8-5.5,5.5-5.5h15.7v41.4h-8.1v-13h-1.1c-1.5,0-1.9,1.4-2.2,2.7l-2.5,10.3H271l2.7-10.4
	c0.3-1.3,0.9-2.6,2.2-3c-2,0-3.8-1.4-3.8-3.5L272.1,339.2L272.1,339.2z M281.1,340.9c-0.6,0-0.8,0.3-0.8,0.9v12.7
	c0,0.6,0.2,0.9,0.8,0.9h4.2V341L281.1,340.9L281.1,340.9z"/>
<path class="st4" d="M126,370l-0.7,5.1H117l7.5-41.4h8.8l7.5,41.4h-8.3l-0.7-5.1H126z M126.9,363.4h3.8l-1.9-14.8L126.9,363.4z"/>
</svg>
