<?xml version="1.0" encoding="utf-8"?>
<!-- Generator: Adobe Illustrator 25.2.0, SVG Export Plug-In . SVG Version: 6.00 Build 0)  -->
<svg version="1.1" id="Слой_1" xmlns="http://www.w3.org/2000/svg" xmlns:xlink="http://www.w3.org/1999/xlink" x="0px" y="0px"
	 viewBox="0 0 428.6 392.4" style="enable-background:new 0 0 428.6 392.4;" xml:space="preserve">
<style type="text/css">
	.st0{fill:#E0E0E0;}
	.st1{fill:#EBEBEB;}
	.st2{fill:#263238;}
	.st3{fill:#FAFAFA;}
	.st4{fill:#FFFFFF;}
	.st5{fill:#20B2AA;}
	.st6{fill:#B78876;}
	.st7{fill:#AA6550;}
	.st8{fill:#455A64;}
	.st9{opacity:0.2;}
	.st10{opacity:0.5;}
	.st11{font-family:'Impact';}
	.st12{font-size:25.8672px;}
</style>
<g id="freepik--background-complete--inject-50">
	<rect x="32.5" y="36.9" class="st0" width="388.3" height="258.3"/>
	<rect x="20.7" y="48.5" class="st1" width="388.3" height="258.3"/>
</g>
<g id="freepik--Floor--inject-50">
	<path class="st2" d="M427.9,392.1c0,0.1-96,0.3-214.3,0.3s-214.3-0.1-214.3-0.3s95.9-0.3,214.3-0.3S427.9,392,427.9,392.1z"/>
</g>
<rect x="7.4" y="61.9" class="st3" width="388.3" height="256.4"/>
<path class="st2" d="M395.8,318.3c0-1.7-0.1-100-0.2-256.4l0.2,0.2H7.5l0,0l0.3-0.3c0,91.3,0,178.1,0,256.4L7.5,318L395.8,318.3
	L7.5,318.5H7.2v-0.2c0-78.4,0-165.2,0-256.4v-0.3h0.3h388.3h0.2v0.2C395.8,218.3,395.8,316.6,395.8,318.3z"/>
<path class="st4" d="M299,290.1c0,1.1-0.8,1.8-2.5,1.8h-3.1v-6.7h2.9c1.5,0,2.4,0.6,2.4,1.7c0,0.7-0.4,1.3-1,1.5
	C298.5,288.6,299.1,289.3,299,290.1z M294.1,285.8v2.4h2.1c1.1,0,1.7-0.4,1.7-1.2s-0.6-1.2-1.7-1.2L294.1,285.8z M298.3,290.1
	c0-0.9-0.6-1.3-1.8-1.3h-2.4v2.5h2.4C297.7,291.3,298.4,291,298.3,290.1L298.3,290.1z"/>
<path class="st4" d="M304.3,288.8v3.1h-0.6v-0.8c-0.4,0.6-1,0.9-1.7,0.8c-1.1,0-1.8-0.6-1.8-1.5s0.5-1.4,1.9-1.4h1.6v-0.3
	c0-0.9-0.5-1.3-1.4-1.3c-0.6,0-1.2,0.2-1.7,0.6l-0.3-0.5c0.6-0.5,1.3-0.7,2-0.7c1-0.2,1.9,0.5,2,1.5
	C304.3,288.5,304.3,288.6,304.3,288.8z M303.6,290.4v-0.8H302c-1,0-1.3,0.4-1.3,0.9s0.5,0.9,1.3,0.9
	C302.7,291.5,303.3,291,303.6,290.4L303.6,290.4z"/>
<path class="st4" d="M305.6,289.4c0-1.4,1-2.5,2.4-2.5c0.1,0,0.1,0,0.2,0c0.8-0.1,1.6,0.3,2,1l-0.5,0.3c-0.3-0.5-0.9-0.8-1.5-0.7
	c-1.1,0.2-1.8,1.3-1.5,2.4c0.2,0.7,0.8,1.3,1.5,1.5c0.6,0,1.1-0.3,1.5-0.7l0.5,0.4c-0.4,0.7-1.2,1.1-2,1c-1.4,0.1-2.5-1-2.6-2.4
	C305.6,289.5,305.6,289.5,305.6,289.4z"/>
<path class="st4" d="M313.3,289.4l-1.2,1.1v1.4h-0.7v-7.1h0.7v4.8l3-2.7h0.8l-2.1,2.1l2.3,3h-0.8L313.3,289.4z"/>
<path class="st4" d="M288.1,287c-0.5,0.7-1.1,1.3-1.8,1.9l0,0v-0.2c0.7,0.5,1.3,1.2,1.8,1.9c-0.7-0.5-1.4-1-2-1.6l-0.1-0.1l0.1-0.1
	l0,0C286.7,288.1,287.3,287.5,288.1,287z"/>
<path class="st4" d="M290.9,288.8c-1.6,0.2-3.2,0.2-4.8,0C287.7,288.6,289.3,288.6,290.9,288.8z"/>
<path class="st4" d="M345.1,285.2v6.7h-0.6l-4.3-5.4v5.4h-0.7v-6.7h0.6l4.3,5.4v-5.4H345.1z"/>
<path class="st4" d="M351.5,289.6h-4.2c0.1,1,0.9,1.8,2,1.7l0,0c0.6,0,1.1-0.2,1.5-0.6l0.4,0.4c-1,1.1-2.7,1.1-3.7,0.1
	c-0.5-0.5-0.8-1.1-0.8-1.8c-0.1-1.3,0.9-2.5,2.3-2.6s2.5,0.9,2.6,2.3c0,0.1,0,0.2,0,0.3C351.5,289.5,351.5,289.5,351.5,289.6z
	 M347.3,289.1h3.5c-0.1-1-0.9-1.7-1.9-1.6C348.1,287.5,347.4,288.2,347.3,289.1z"/>
<path class="st4" d="M355.9,291.9l-1.6-2.1l-1.6,2.1H352l2-2.6l-1.9-2.4h0.8l1.5,2l1.5-2h0.7l-1.9,2.4l2,2.6H355.9z"/>
<path class="st4" d="M360.5,291.6c-0.3,0.3-0.7,0.4-1.1,0.4c-0.7,0.1-1.4-0.4-1.5-1.2c0-0.1,0-0.2,0-0.3v-3H357V287h0.9v-1.1h0.7
	v1.1h1.5v0.6h-1.5v3c-0.1,0.4,0.2,0.8,0.7,0.9c0.1,0,0.1,0,0.2,0c0.3,0,0.5-0.1,0.7-0.3L360.5,291.6z"/>
<path class="st4" d="M365.1,290.5c0.5-0.7,1.1-1.3,1.8-1.9l0,0v0.2c-0.7-0.5-1.3-1.2-1.8-1.9c0.7,0.5,1.4,1,2,1.6l0.1,0.1l-0.1,0.1
	l0,0C366.4,289.5,365.8,290.1,365.1,290.5z"/>
<path class="st4" d="M362.2,288.8c0.8-0.1,1.6-0.2,2.4-0.1c0.8,0,1.6,0,2.4,0.1c-0.8,0.2-1.6,0.2-2.4,0.2
	C363.8,289,363,288.9,362.2,288.8z"/>
<path class="st4" d="M58.1,132.7c-1.1,1.6-2.4,3.1-3.8,4.4c-0.3,0.4-0.7,0.7-1,1.1l-0.2,0.2l-0.2-0.2c-1.1-1-2.1-2-3-3.2
	c1.2,0.8,2.3,1.8,3.3,2.8h-0.3c0.3-0.4,0.7-0.7,1-1.1C55.2,135.2,56.6,133.9,58.1,132.7z"/>
<path class="st0" d="M395.8,103.6c0,0.1-86.9,0.3-194.2,0.3S7.4,103.7,7.4,103.6s86.9-0.3,194.2-0.3S395.8,103.4,395.8,103.6z"/>
<path class="st2" d="M346.1,191.1c0,0.1-66.3,0.3-148.1,0.3s-148.1-0.1-148.1-0.3s66.3-0.3,148.1-0.3S346.1,190.9,346.1,191.1z"/>
<path class="st2" d="M182,202.8c-0.1,0-0.2,0-0.3,0h-1l-3.9,0.1l-14.1,0.1l-46.7,0.1L69.3,203l-14.2-0.1l-3.8-0.1h-1
	c-0.1,0-0.2,0-0.3,0h0.3h1l3.8-0.1l14.2-0.1l46.7-0.1l46.7,0.1l14.1,0.1l3.9,0.1h1H182z"/>
<path class="st2" d="M315.9,219.8c0,0.1-54.2,0.3-121,0.3s-121-0.1-121-0.3s54.1-0.3,121-0.3S315.9,219.6,315.9,219.8z"/>
<path class="st0" d="M58.8,223.6c-2.9,0-5.3-2.4-5.3-5.3c0-2.9,2.4-5.3,5.3-5.3s5.3,2.4,5.3,5.3l0,0
	C64.1,221.3,61.7,223.6,58.8,223.6z M58.8,214.1c-2.4,0-4.3,1.9-4.3,4.3c0,2.4,1.9,4.3,4.3,4.3s4.3-1.9,4.3-4.3l0,0
	C63.1,216,61.1,214.1,58.8,214.1z"/>
<path class="st2" d="M266.8,232.7c0,0-0.2,0-0.5,0h-1.5l-5.6,0.1l-20.7,0.1l-68.2,0.1l-68.2-0.1l-20.7-0.1l-5.6-0.1h-1.5h-0.5h0.5
	h1.5l5.6-0.1l20.7-0.1l68.2-0.1l68.2,0.1l20.7,0.1l5.6,0.1h1.5C266.7,232.7,266.8,232.7,266.8,232.7z"/>
<path class="st0" d="M58.8,238c-2.9,0-5.3-2.4-5.3-5.3c0-2.9,2.4-5.3,5.3-5.3s5.3,2.4,5.3,5.3l0,0C64.1,235.6,61.7,238,58.8,238z
	 M58.8,228.4c-2.4,0-4.3,1.9-4.3,4.3c0,2.4,1.9,4.3,4.3,4.3s4.3-1.9,4.3-4.3l0,0C63,230.4,61.1,228.4,58.8,228.4L58.8,228.4z"/>
<circle class="st5" cx="58.8" cy="232.7" r="2.3"/>
<path class="st2" d="M315.9,248.5c0,0.1-54.2,0.3-121,0.3s-121-0.1-121-0.3s54.1-0.3,121-0.3S315.9,248.4,315.9,248.5z"/>
<path class="st0" d="M58.8,252.4c-2.9,0-5.3-2.4-5.3-5.3c0-2.9,2.4-5.3,5.3-5.3s5.3,2.4,5.3,5.3l0,0C64.1,250,61.7,252.4,58.8,252.4
	z M58.8,242.8c-2.4,0-4.3,1.9-4.3,4.3c0,2.4,1.9,4.3,4.3,4.3c2.4,0,4.3-1.9,4.3-4.3l0,0C63.1,244.7,61.1,242.8,58.8,242.8
	L58.8,242.8z"/>
<g id="freepik--Character--inject-50">
	<path class="st2" d="M145,162.1c-3.5,1.3-5.8,4.6-6,8.4c-0.1,2.3,0,5-1.8,6.5s-4.2,0.7-6.3,1.5c-2.6,1-3.9,3.9-4.5,6.6
		s-0.7,5.6-2.3,7.9s-3.9,3.6-6.1,5s-4.4,3.5-4.9,6.1c-0.6,3.8,2.7,7.6,1.4,11.2c-0.9,2.3-3.4,3.5-5.2,5.1c-5,4.3-5.5,11.8-1.2,16.8
		c0.1,0.1,0.2,0.2,0.3,0.3c1.7,2,4.2,3.1,6.8,2.9c2.5-0.4,4.4-2.2,6.3-3.8c6.8-6.1,14.5-11.2,22.7-15.2c2.1-1,4.4-2.1,5.5-4.3
		c0.5-1.1,0.8-2.3,0.9-3.5c2.3-15.7,4.6-31.5,6.9-47.2"/>
	<path class="st2" d="M168.4,147.1c-0.9-3.5,1.1-7.2,4.1-9.2s6.8-2.4,10.3-2.3s7.8,1,9.8,4.1c1.3,1.9,1.5,4.4,2.6,6.4
		c3.2,5.7,12.1,5.8,15.6,11.3c3.3,5.3-0.1,12.1,0.7,18.3c0.5,4.1,2.9,7.7,4.8,11.5c1.9,3.7,3.2,8.1,1.7,12c-1.7,4.1-6.5,6.8-7,11.2
		c-0.6,5.5,5.9,10.5,3.9,15.7c-1.5,3.8-7,5.3-7.6,9.3c-0.3,2.2,1,4.2,1.6,6.3c1.5,5.4-2,11.3-7,13.7c-5,2.4-11,2.1-16.3,0.3
		c-17.3-6-26.5-24.9-20.5-42.3c0.1-0.3,0.2-0.6,0.3-0.9"/>
	<path class="st2" d="M112.1,200.5c-0.2-0.3-0.5-0.6-0.8-0.7c-0.4-0.2-0.8-0.2-1.3-0.1c-0.6,0.1-1,0.5-1.2,1.1
		c-0.2,0.7-0.1,1.5,0.3,2.1c0.5,0.7,1.3,1.1,2.2,1.1c1,0,2-0.5,2.6-1.2c0.8-0.8,1.3-1.9,1.6-3c0.7-2.3,0.5-5,0.8-7.9
		c0.1-1.5,0.5-3,1.2-4.3c0.4-0.7,0.8-1.4,1.4-1.9c0.6-0.6,1.3-1,2.1-1.3c1.6-0.4,3.3-0.7,4.9-0.8c1.7-0.1,3.3-0.8,4.4-2
		c1.1-1.3,1.2-3.2,1-4.9c-0.2-1.8-0.4-3.7-0.4-5.5c0.1-1.9,0.8-3.7,1.8-5.3s2.5-2.7,4.2-3.4c1.7-0.4,3.5-0.5,5.2-0.3
		c1.6,0.1,3.4,0.2,4.6-0.8s1.6-2.6,1.6-4c0-1.5,0.1-3,0.4-4.4c0.7-2.6,2.3-4.9,4.5-6.6c1.8-1.3,4-2.1,6.2-2.1c1.7,0,3.3,0.3,4.9,0.9
		c1,0.4,1.9,0.9,2.7,1.6c0.3,0.2,0.5,0.5,0.8,0.8c0,0-0.3-0.2-0.9-0.7c-0.8-0.6-1.7-1.1-2.7-1.5c-1.5-0.6-3.2-0.9-4.8-0.8
		c-2.2,0.1-4.3,0.8-6,2.1c-2.1,1.6-3.6,3.8-4.3,6.4c-0.3,1.4-0.4,2.9-0.4,4.4c0,0.8-0.2,1.6-0.4,2.3c-0.3,0.8-0.8,1.5-1.4,2
		c-0.7,0.5-1.5,0.8-2.4,0.9c-0.8,0.1-1.7,0.1-2.5,0c-1.7-0.3-3.4-0.2-5,0.2c-1.6,0.6-3.1,1.7-4,3.2c-1,1.5-1.6,3.2-1.8,5
		c0,1.8,0.1,3.6,0.4,5.5c0.1,0.9,0.1,1.8-0.1,2.7c-0.1,0.9-0.5,1.8-1.1,2.5s-1.3,1.3-2.2,1.6c-0.8,0.3-1.7,0.5-2.5,0.6
		c-1.6,0.1-3.2,0.4-4.8,0.8c-0.7,0.2-1.4,0.6-2,1.1c-0.5,0.5-1,1.1-1.3,1.8c-0.6,1.3-1,2.7-1.2,4.2c-0.3,2.8-0.1,5.5-0.8,7.9
		c-0.3,1.2-0.9,2.2-1.7,3.1c-0.8,0.8-1.8,1.2-2.9,1.3c-1,0-1.9-0.4-2.4-1.2c-0.4-0.7-0.6-1.5-0.3-2.3c0.2-0.6,0.8-1,1.4-1.2
		c0.5-0.1,0.9,0,1.3,0.1C111.7,199.9,112,200.1,112.1,200.5z"/>
	<path class="st2" d="M221.4,212.9c0,0.1,0.1,0.2,0.1,0.3c0.1,0.3,0.1,0.5,0.1,0.8c-0.1,1.1-0.7,2.1-1.7,2.6
		c-0.7,0.4-1.5,0.6-2.3,0.5c-0.9-0.2-1.7-0.7-2.3-1.4c-0.7-0.8-1.1-1.8-1.2-2.9c-0.1-1.2,0.1-2.4,0.6-3.5c0.9-2.3,2.9-4.3,4.7-6.5
		c0.9-1.1,1.7-2.4,2.3-3.7c0.6-1.4,0.8-3,0.8-4.5c0-1.6-0.4-3.2-1.1-4.7c-0.7-1.5-1.7-2.9-3-4c-1.3-1.2-2.7-2.3-4-3.6
		c-1.4-1.3-2.3-3.1-2.5-5c-0.1-1.9,0.2-3.7,0.9-5.5c0.6-1.7,1-3.4,1.2-5.2c0.4-3.3-0.6-6.7-2.7-9.3c-1-1.2-2.3-2.1-3.7-2.7
		c-1.4-0.5-2.8-0.7-4.3-0.6c-1.4,0.1-2.8-0.1-4.2-0.5c-1.2-0.6-2.2-1.6-2.7-2.8c-1-2.3-1-4.6-1.4-6.4c-0.2-0.9-0.5-1.7-0.9-2.5
		c-0.4-0.6-0.9-1.2-1.5-1.6c-0.8-0.6-1.9-0.9-2.9-0.8c-0.3,0.1-0.7,0.2-1,0.4c0.3-0.2,0.6-0.4,1-0.5c1.1-0.2,2.1,0.1,3,0.7
		c0.6,0.4,1.2,1,1.6,1.7c0.5,0.8,0.8,1.7,1,2.6c0.5,1.9,0.5,4.2,1.5,6.4c0.5,1.1,1.4,2.1,2.5,2.6c1.3,0.4,2.6,0.6,4,0.5
		c3.2-0.3,6.3,1,8.3,3.5c2.2,2.7,3.2,6.2,2.8,9.7c-0.2,1.8-0.6,3.6-1.2,5.3c-0.6,1.7-0.9,3.5-0.8,5.3c0.2,1.8,1.1,3.4,2.4,4.7
		c1.2,1.3,2.6,2.4,3.9,3.6c1.3,1.2,2.4,2.6,3.1,4.2c0.7,1.5,1.1,3.2,1.1,4.9c0,1.6-0.2,3.2-0.8,4.7c-0.6,1.4-1.4,2.7-2.4,3.8
		c-1.9,2.2-3.8,4.1-4.7,6.4c-0.5,1-0.7,2.2-0.6,3.3c0.1,1,0.5,2,1.1,2.8c0.5,0.7,1.3,1.2,2.2,1.4c0.7,0.1,1.5,0,2.1-0.4
		c0.9-0.5,1.5-1.4,1.7-2.4C221.6,213.6,221.5,213.3,221.4,212.9z"/>
	<path class="st2" d="M143.6,163.3c-1.9,0.5-2.9,2.7-2.9,4.7c0.2,2,0.6,3.9,1.3,5.7c0.5,1.9,0.8,4-0.2,5.8c-1.9,3.5-7.2,3.3-9.8,6.3
		c-3.3,3.8-0.2,10.1-2.6,14.5c-2.1,4-8.2,5.3-9.4,9.7c-0.8,2.8,0.8,5.9,0,8.7c-0.9,3.2-4.4,4.8-6.3,7.5c-1.8,2.9-2,6.5-0.6,9.5
		c1.3,2.7,3.1,5.1,5.5,6.9c0.3,0.2,0.6,0.5,0.9,0.7l34.4-8l6.9-63.7L143.6,163.3z"/>
	<path class="st6" d="M162.5,151.5c-2.6-0.3-5,1.5-5.5,4l0,0l-11.3,66.9c-1.6,7.9,8.9,14.7,17.4,16.3l0,0c8.5,1.6,9.7-2.5,11.4-9.9
		c2.9-12.4,3.9-17.1,3.8-17s11.1,0.5,16.3-13c2.6-6.7,4.7-18.2,6.1-27.6c1.3-8.5-2.1-20-10.6-20.8L162.5,151.5z"/>
	<path class="st2" d="M195.5,179.7c-0.2,1-1.1,1.6-2.1,1.4c-1-0.1-1.6-1-1.5-1.9c0,0,0,0,0-0.1c0.2-1,1.1-1.6,2.1-1.4
		C195,177.8,195.7,178.7,195.5,179.7L195.5,179.7z"/>
	<path class="st2" d="M196.8,177.9c-0.3,0.2-1.4-1.1-3.3-1.5s-3.5,0.3-3.7,0c-0.1-0.1,0.2-0.5,0.9-0.8c0.9-0.4,2-0.5,3-0.3
		s1.9,0.7,2.6,1.5C196.8,177.3,196.9,177.8,196.8,177.9z"/>
	<path class="st2" d="M176.3,175.6c-0.2,1-1.1,1.6-2.1,1.4c-1-0.1-1.6-1-1.5-2l0,0c0.2-1,1.1-1.6,2.1-1.4
		C175.8,173.7,176.5,174.6,176.3,175.6L176.3,175.6z"/>
	<path class="st2" d="M177.8,173.6c-0.3,0.2-1.4-1.1-3.3-1.5s-3.6,0.3-3.7,0c-0.1-0.1,0.2-0.5,0.9-0.8c1-0.4,2-0.5,3-0.3
		s1.9,0.7,2.6,1.5C177.8,173,177.9,173.5,177.8,173.6z"/>
	<path class="st2" d="M181.7,188.8c1.1-0.1,2.2-0.1,3.3,0.1c0.5,0,1,0.1,1.1-0.3c0.2-0.5,0.2-1,0-1.5l-0.7-4.1
		c-0.9-5.8-1.4-10.5-1.2-10.5s1.1,4.6,2,10.4c0.2,1.4,0.4,2.8,0.6,4.1c0.2,0.7,0.1,1.4-0.2,2c-0.2,0.3-0.6,0.5-1,0.5
		c-0.3,0-0.6,0-0.9-0.1C183.8,189.4,182.8,189.2,181.7,188.8z"/>
	<path class="st7" d="M178.2,211.9c-6.6-1.3-12.7-4.4-17.6-9c0,0,2.6,10.9,16.9,12.5L178.2,211.9z"/>
	<path class="st7" d="M179.9,193.3c-0.5-1.1-1.6-1.9-2.8-2c-0.9-0.1-1.8,0.2-2.4,0.7c-0.7,0.5-0.9,1.4-0.6,2.3
		c0.5,0.8,1.4,1.3,2.4,1.2s1.9-0.4,2.8-0.9c0.2-0.1,0.5-0.3,0.7-0.5C180.1,193.8,180.1,193.6,179.9,193.3"/>
	<path class="st2" d="M175.8,188.9c0.3,0-0.1,2.1,1.4,4s3.8,2.1,3.7,2.4c0,0.1-0.6,0.3-1.5,0.1c-1.2-0.2-2.3-0.9-3.1-1.9
		c-0.8-0.9-1.1-2.1-1-3.3C175.3,189.4,175.7,188.9,175.8,188.9z"/>
	<path class="st2" d="M179.4,169.8c-0.3,0.5-2.2-0.2-4.5-0.4s-4.3,0-4.5-0.5c-0.1-0.3,0.3-0.7,1.2-1c2.3-0.8,4.8-0.6,6.8,0.7
		C179.2,169.1,179.5,169.6,179.4,169.8z"/>
	<path class="st2" d="M197.3,174.4c-0.4,0.4-1.7-0.4-3.3-0.7s-3-0.3-3.2-0.9c-0.1-0.3,0.2-0.6,0.9-0.9c1.8-0.7,3.9-0.2,5.2,1.3
		C197.4,173.7,197.5,174.2,197.3,174.4z"/>
	<path class="st2" d="M172.6,148.9c-2.7-3-6.6-4.6-10.6-4.4c-3.9,0.3-7.8,2.9-8.7,6.7c-0.6,2.4-0.1,5.3-1.7,7.3s-4.3,2.2-6.4,3.3
		c-3.4,1.9-5.1,5.9-4.1,9.7c0.9,3.1,3.7,5.9,3.3,9.1c-0.4,3-3.4,5-4.7,7.8c-1.4,3.1-0.3,6.8,1.8,9.5s5.1,4.6,8,6.4
		c2.3,1.4,4.7,2.9,7.4,2.9c3.2-0.2,6.1-2.3,7.1-5.3s0.6-6.3-1.1-9c-1.4-2.4-3.5-4.6-3.4-7.3c0.2-4.2,5.8-6.5,6.3-10.7
		c0.3-2.1-0.8-4.2-1.7-6.2s-1.5-4.4-0.3-6.3c1.5-2.4,5.1-2.3,7.5-3.8c2.1-1.3,3.3-3.6,3.1-6c-0.3-2.4-1.9-4.5-4.1-5.4"/>
	<path class="st2" d="M171.8,145.5c-1.2,5.3,2.2,10.5,7.4,11.6c0.6,0.1,1.2,0.2,1.8,0.2c2.2,0.1,4.8-0.5,6.4,1s1.1,4.6,2.5,6.4
		c2,2.7,6.3,1.5,9.3,3.1c2.3,1.2,3.3,3.9,4.4,6.1s3.2,4.6,5.8,4.5c0.4-2.2,0.5-4.4,0.4-6.6c-0.1-2.2-1-4.4-2.5-6
		c-0.9-0.9-1.9-1.5-2.7-2.5c-1.7-2-1.5-5-2.3-7.5c-1-3.3-3.6-5.9-6.8-7c-2.7-0.9-5.7-0.7-8.2-1.9c-1.9-0.9-3.3-2.6-5.2-3.4
		c-3.7-1.6-8,0.4-11.4,2.6"/>
	<path class="st8" d="M120.7,226c-0.4-0.1-0.7-0.2-1.1-0.3c-1-0.5-1.8-1.2-2.5-2.1c-1-1.4-1.5-3.2-1.3-4.9c0.2-2.3,1.3-4.4,3-6
		c0.9-0.9,2-1.6,3.1-2.4c1.1-0.8,2-1.9,2.5-3.2c0.3-1.5,0.3-3,0-4.5c-0.1-1.7,0.2-3.3,1-4.8c0.8-1.6,2-2.9,3.4-3.9
		c1.5-1,3.3-1.6,5.1-1.6c1.8-0.1,3.6,0.1,5.5-0.1c0.9-0.1,1.8-0.4,2.5-0.9c0.8-0.5,1.4-1.2,1.8-2c0.7-1.7,1.3-3.5,1.6-5.4
		c0.2-0.9,0.5-1.8,0.9-2.6s1.1-1.6,1.9-2.1c1.6-0.9,3.3-1.5,5.1-1.8c1.6-0.2,3.2-0.8,4.6-1.7c0.6-0.4,1.1-1.1,1.5-1.8
		c0.3-0.7,0.4-1.5,0.4-2.2c-0.2-1.5-0.5-3-1.1-4.4c-0.5-1.4-0.7-2.8-0.7-4.3c0.1-0.7,0.3-1.4,0.6-2c0.4-0.6,0.9-1,1.4-1.4
		c1.1-0.6,2.3-0.9,3.5-1c1-0.1,2.1-0.3,3.1-0.5c1.6-0.4,3.1-1.4,4.1-2.8c0.7-0.8,1.1-1.8,1.4-2.8c0.2-0.7,0.2-1.1,0.2-1.1
		c0,0.4,0,0.8-0.1,1.1c-0.2,1.1-0.7,2.1-1.4,2.9c-1,1.4-2.5,2.4-4.2,2.9c-1,0.3-2.1,0.5-3.1,0.6c-1.2,0.1-2.3,0.5-3.3,1
		c-1.1,0.7-1.8,1.8-1.9,3.1c0,1.4,0.2,2.8,0.7,4.1c0.6,1.4,1,2.9,1.1,4.5c0.1,0.8-0.1,1.7-0.4,2.4c-0.4,0.8-0.9,1.5-1.6,2
		c-1.5,0.9-3.1,1.5-4.8,1.8c-1.7,0.2-3.4,0.8-4.9,1.7c-1.4,1.1-2.3,2.7-2.6,4.5c-0.3,1.9-0.9,3.7-1.6,5.5c-0.5,0.9-1.1,1.6-2,2.2
		c-0.8,0.5-1.8,0.8-2.7,0.9c-1.9,0.3-3.7,0-5.5,0.1c-3.5,0.1-6.6,2.1-8.1,5.2c-0.7,1.4-1.1,3-1,4.5c0.3,1.5,0.3,3.1,0,4.6
		c-0.5,1.4-1.4,2.6-2.7,3.4c-1.1,0.8-2.2,1.5-3.1,2.4c-1.7,1.5-2.7,3.5-3,5.8c-0.2,1.7,0.2,3.4,1.2,4.8c0.6,0.9,1.4,1.6,2.4,2.1
		C120.3,225.9,120.7,226,120.7,226z"/>
	<path class="st8" d="M203.7,247.2c0.3-0.3,0.6-0.6,0.9-1c0.7-1,1.1-2.2,1.1-3.5c0.1-2-0.4-3.9-1.3-5.6c-1-2.1-2.6-4.2-3.6-7
		c-1.1-3.1-1.1-6.4,0-9.5c0.6-1.7,1.5-3.3,2.6-4.6c1.2-1.4,2.7-2.6,3.9-4.1s2-3.4,1.4-5.3s-2.3-3.2-3.7-4.6c-0.8-0.7-1.5-1.6-2-2.5
		c-0.5-1-0.8-2.1-0.9-3.2c-0.1-2.2,0.2-4.5,1.1-6.5c0.8-2.1,1.9-4,2.8-6c0.9-1.9,1.5-3.9,1.8-6c0.3-4-1.3-7.9-4.3-10.6
		c-1.5-1.1-3.1-2.1-4.7-3c-0.8-0.5-1.5-1.2-2-1.9c-0.4-0.8-0.7-1.6-0.8-2.5c-0.1-0.8-0.4-1.6-0.8-2.3c-0.4-0.7-1-1.2-1.7-1.6
		c-1.4-0.6-2.8-1.1-4.3-1.4c-1.4-0.3-2.7-0.7-4-1.3c-1.1-0.6-2.1-1.3-3-2.2c-1.4-1.4-2.5-3.1-3.3-5c-0.4-1.2-0.7-2.4-0.8-3.7
		c0-0.4,0-0.9,0-1.3c0,1.7,0.3,3.3,0.9,4.9c0.7,1.8,1.8,3.5,3.3,4.8c0.9,0.9,1.9,1.6,2.9,2.1c1.2,0.6,2.5,1,3.9,1.3
		c1.5,0.3,3,0.7,4.4,1.4c0.8,0.4,1.4,1,1.9,1.7c0.4,0.8,0.7,1.6,0.9,2.4c0.1,0.8,0.4,1.6,0.8,2.4c0.5,0.7,1.1,1.3,1.9,1.8
		c1.7,0.9,3.2,1.9,4.8,3c3.1,2.8,4.8,6.8,4.5,11c-0.2,2.1-0.9,4.2-1.8,6.2c-0.9,2-2,3.9-2.8,5.9s-1.2,4.1-1.1,6.3
		c0.1,1,0.4,2.1,0.9,3s1.2,1.7,1.9,2.4s1.5,1.4,2.2,2.2s1.3,1.7,1.6,2.7s0.2,2.1-0.1,3.1s-0.8,1.8-1.4,2.6c-1.2,1.5-2.7,2.7-3.9,4.1
		c-1.1,1.3-2,2.8-2.6,4.5c-1,3-1,6.2,0,9.2c1,2.7,2.5,4.9,3.5,7c0.9,1.8,1.4,3.8,1.3,5.8c-0.1,1.3-0.5,2.5-1.3,3.5
		C204.3,246.6,204,246.9,203.7,247.2z"/>
	<path class="st5" d="M192.4,235.3c5.6,5.9,8.7,13.8,8.6,22c-0.3,13.7,1.9,38.5,1.9,38.5l37.9,23.1l-10.7,16.4l-41.7-18.5l-8.8-17.9
		L192.4,235.3z"/>
	<path class="st5" d="M204,329c0,0,1.4-2.7-2.6-4.8H195l-12.6-21.7l10-67.3l-17.1-13l-37.9-3.4l-13.3,68.1l16.9,31l33.6,13.8
		L204,329z"/>
	<path class="st5" d="M144.1,219.4l0.8-6.4c0.1-1.1,1.1-1.9,2.2-1.8c0.1,0,0.2,0,0.4,0.1c9.4,7.4,19,11.1,29.2,8.1
		c1.4,0.4,2.2,1.8,1.9,3.2l-4,16.1l-10.4,3.1l-13.7-2.7l-6.4-11.8V219.4z"/>
	<path class="st2" d="M176.9,223.8c-0.4,0.3-0.8,0.5-1.3,0.7c-1.2,0.6-2.4,1.1-3.6,1.5c-8.4,2.7-17.5,0.6-23.9-5.4
		c-0.9-0.9-1.8-1.8-2.6-2.9c-0.3-0.4-0.6-0.8-0.8-1.2c1.1,1.3,2.4,2.6,3.6,3.8c6.4,5.7,15.3,7.7,23.6,5.3
		C173.7,225.2,175.3,224.6,176.9,223.8z"/>
	<g class="st9">
		<path d="M145.9,217.9c-0.5,1.3-0.3,2.7,0.5,3.8s1.8,2,2.9,2.7c3.7,2.7,7.5,5.5,11.9,6.7s9.6,0.8,12.9-2.3c1-0.9,1.7-2.6,0.7-3.4
			c-0.8-0.6-1.9-0.3-2.8,0.1c-9.3,3.6-19.9,0.3-25.6-7.9"/>
	</g>
	<path class="st5" d="M140.7,290.7l62,33.2l-22.3,13.5l-42.7-12.5c-22.6-6-28.8-15.4-28.5-25c0.1-3.5-0.3-38,1.2-54.9
		c2.1-23,27.1-26.1,27.1-26.1l-0.4,19.6l0.3,24l0.9,22c2.3-1.1,2.8,3.1,2.8,3.1L140.7,290.7z"/>
	<path class="st2" d="M137.7,287.3c-0.1,0-0.3-8.3-0.4-18.6s-0.1-18.6,0.1-18.6s0.3,8.3,0.4,18.6S137.8,287.3,137.7,287.3z"/>
	<path class="st2" d="M140.5,291.8c-0.1,0,0.1-0.4,0.2-1c0.1-0.8,0-1.6-0.4-2.4c-0.4-0.7-1.1-1.2-1.9-1.5c-0.6-0.2-1-0.2-1-0.3
		s0.4-0.2,1.1,0c1.9,0.4,3,2.3,2.6,4.2c0,0.1,0,0.1,0,0.2C140.8,291.6,140.5,291.9,140.5,291.8z"/>
	<path class="st2" d="M140.5,291.8c0,0,0,0,0.1,0.1l0.4,0.2c0.3,0.2,0.8,0.5,1.5,0.8c1.3,0.7,3.1,1.7,5.4,2.9l18,9.3l18.1,9.2
		l5.4,2.8l1.5,0.8c0.2,0.1,0.3,0.2,0.5,0.3c-0.2-0.1-0.4-0.1-0.5-0.2l-1.5-0.7l-5.5-2.7c-4.6-2.3-11.1-5.5-18.1-9.1
		s-13.4-6.9-18-9.4S140.3,292,140.5,291.8z"/>
	<path class="st2" d="M181,303.3c-1-0.1-2-0.4-2.9-0.7c-1.8-0.5-4.2-1.3-6.9-2.2s-5-1.8-6.8-2.5c-0.9-0.3-1.9-0.7-2.7-1.2
		c1,0.2,2,0.5,2.9,0.9l6.8,2.3l6.8,2.3C179.2,302.5,180.1,302.8,181,303.3z"/>
	<path class="st2" d="M165.7,277.7c0,0-0.1,0.3-0.3,0.7c-0.3,0.6-0.7,1.3-1.1,1.8c-0.6,0.9-1.4,1.7-2.2,2.4c-1,0.9-2.1,1.6-3.2,2.3
		c-1.2,0.6-2.4,1.1-3.6,1.5c-1,0.3-2.1,0.5-3.2,0.5c-0.7,0.1-1.4,0.1-2.2,0c-0.5-0.1-0.8-0.1-0.8-0.1s1.1,0,2.9-0.2
		c1-0.1,2.1-0.3,3.1-0.6c1.2-0.4,2.4-0.9,3.5-1.5s2.2-1.3,3.1-2.2c0.8-0.7,1.5-1.4,2.2-2.2C165.1,278.7,165.7,277.7,165.7,277.7z"/>
	<path class="st2" d="M137.4,244.4c-0.1,0-0.2-1.4-0.5-3.6c-0.4-2.9-1.1-5.8-2.3-8.4c-1.2-2.7-3.1-5-5.4-6.7c-1-0.7-2.1-1.3-3.2-1.8
		c0.3,0,0.7,0.1,1,0.2c0.9,0.3,1.7,0.7,2.4,1.2c2.5,1.7,4.5,4.1,5.7,6.8c1.2,2.7,1.9,5.6,2.2,8.6c0.1,1.1,0.2,2,0.2,2.7
		C137.5,243.7,137.5,244.1,137.4,244.4z"/>
	<path class="st2" d="M203.5,295.7c-0.6,0.4-1.1,0.8-1.6,1.3c-1.2,1.2-2.2,2.5-3,3.9c-0.9,1.4-1.5,2.9-2,4.5c-0.3,1.2-0.4,2-0.4,2
		c-0.1-0.7-0.1-1.4,0.1-2.1c0.4-1.6,1-3.2,1.9-4.6c0.8-1.5,1.9-2.8,3.2-3.9C202.1,296.2,202.8,295.8,203.5,295.7z"/>
	<g class="st9">
		<path d="M194.3,320c2.1-4,1.6-8.7,0.4-13s-2.9-8.5-3.3-12.9c-0.3-3.9,0.5-7.7,1.3-11.5s1.5-7.6,1.1-11.5s-2.1-7.7-5.3-9.9
			c1.4,3.1,2.4,6.4,3,9.8s-0.2,6.9-2.2,9.8c-1.1,1.4-2.5,2.5-3.2,4.2c-0.9,2.1-0.8,4.6-1.5,6.7c-0.8,2.4-2.1,10.3-2.1,10.3
			c-0.1,0.4,2.4,4.9,4.8,8.1S192.6,316.4,194.3,320"/>
	</g>
	<path class="st2" d="M194.4,319.8c0,0-0.1-0.1-0.3-0.3l-0.7-0.9l-2.5-3.5c-2.2-3.1-5.2-7.3-8.8-12.4l-0.1-0.1v-0.1l3.3-15.9
		c0.1-0.6,0.3-1.2,0.4-1.8v-0.1v-0.1c3.6-3.6,5.7-8.5,5.7-13.6c-0.1-3.9-1.5-7.7-4-10.8l0,0l0,0c-0.2-2.5-0.3-4.6-0.4-6
		c0-0.7-0.1-1.2-0.1-1.6c0-0.2,0-0.4,0-0.6c0.1,0.2,0.1,0.4,0.1,0.5c0,0.4,0.1,0.9,0.2,1.6c0.1,1.5,0.3,3.5,0.5,6V260
		c2.6,3.1,4,7,4.2,11c0.1,2.5-0.4,5-1.4,7.3c-1,2.5-2.5,4.8-4.4,6.8l0.1-0.1c-0.1,0.6-0.2,1.2-0.4,1.8c-1.2,5.7-2.2,11.1-3.2,15.9
		v-0.2l8.6,12.5c1,1.5,1.8,2.7,2.4,3.5l0.6,1C194.4,319.6,194.4,319.8,194.4,319.8z"/>
	<g class="st9">
		<path d="M149.5,287.1c-0.6-0.5-1.6,0.3-1.5,1c0.1,0.8,0.6,1.5,1.4,1.8c1.9,1.1,4.1,1.5,6.2,1.2c2.7-0.1,5.3-1.2,7.3-3
			s2.9-4.6,2.5-7.2c0-0.2-0.1-0.4-0.3-0.6c-0.5-0.5-1.4,0.1-1.9,0.6c-3.5,3.6-8.2,5.8-13.2,6.1"/>
	</g>
	<g class="st9">
		<path d="M137.4,286.7c-2.4-1-5.1-0.3-6.7,1.7c-0.6,0.6-0.7,1.5-0.4,2.2c0.4,0.5,1.1,0.8,1.8,0.6c0.6-0.2,1.2-0.5,1.7-1
			c1.1-0.9,2.3-1.8,3.4-2.8c0.2-0.1,0.3-0.3,0.4-0.5c0.1-0.2,0-0.4-0.2-0.5"/>
	</g>
	<path class="st2" d="M132.1,291.9c-0.1,0,0-0.5,0.3-1.3c0.8-1.9,2.5-3.4,4.5-4c0.4-0.2,0.8-0.2,1.3-0.1c-1.3,0.5-2.5,1.1-3.6,2
		C133.6,289.5,132.8,290.6,132.1,291.9z"/>
	<path class="st3" d="M113.7,257.8c-0.2-3-0.2-6,0-8.9c0-3,0.2-6,0.5-8.9c0.2,3,0.2,5.9,0,8.9C114.3,251.9,114.1,254.8,113.7,257.8z
		"/>
	<path class="st3" d="M118.2,271.7c-0.1,0-0.3-4.8-0.3-10.7c0-5.9,0.1-10.7,0.3-10.7s0.3,4.8,0.3,10.7
		C118.5,266.9,118.3,271.7,118.2,271.7z"/>
	<path class="st3" d="M126.2,236.4c0.1,0.8,0.1,1.6,0.1,2.4c0,1.5-0.1,3.6-0.1,5.9s-0.2,4.4-0.3,5.9c0,0.8-0.1,1.6-0.3,2.4
		c-0.1-0.8-0.1-1.6-0.1-2.4c0-1.5,0.1-3.6,0.1-5.9s0.2-4.4,0.3-5.9C125.9,238,126,237.2,126.2,236.4z"/>
	<path class="st3" d="M132,265.1c-0.3-2.3-0.4-4.6-0.3-6.9c-0.1-2.3,0-4.6,0.3-6.9c0.3,2.3,0.3,4.6,0.3,6.9
		C132.4,260.5,132.3,262.8,132,265.1z"/>
	<path class="st3" d="M125.5,280.8c-0.1-2.2-0.1-4.3,0.1-6.5c0-2.2,0.2-4.3,0.6-6.5C126.3,272.2,126,276.5,125.5,280.8L125.5,280.8z
		"/>
	<path class="st3" d="M112.1,294c-0.4-4.3-0.5-8.5-0.2-12.8C112.3,285.4,112.4,289.7,112.1,294z"/>
	<path class="st3" d="M118.1,294.9c-0.2-1.5-0.2-3.1,0-4.6c0-1.6,0.2-3.1,0.5-4.6c0.2,1.5,0.2,3.1,0,4.6
		C118.7,291.9,118.5,293.4,118.1,294.9z"/>
	<path class="st3" d="M150.3,302.2c-2.1-0.7-4.1-1.7-6-2.9c-2-1-3.8-2.3-5.5-3.8c0.1-0.1,2.6,1.5,5.8,3.3S150.3,302.1,150.3,302.2z"
		/>
	<path class="st3" d="M170.7,312.9c-0.7-0.2-1.4-0.5-2.1-0.9c-3.2-1.6-6.2-3.6-9-5.9c-0.6-0.4-1.1-1-1.6-1.6
		c0.1-0.1,2.7,2.1,6.2,4.3S170.8,312.8,170.7,312.9z"/>
	<path class="st3" d="M172,318.8c-1.7-0.5-3.3-1.2-4.9-2c-1.6-0.7-3.2-1.5-4.7-2.5c1.7,0.5,3.3,1.2,4.9,2
		C168.9,317,170.5,317.8,172,318.8z"/>
	<path class="st3" d="M185.8,323.6c-0.1,0.1-2.4-1.3-5.3-2.8s-5.5-2.5-5.4-2.6C179,319.2,182.6,321.1,185.8,323.6z"/>
	<path class="st3" d="M182.4,330.4c-1.3-0.6-2.5-1.2-3.6-2c-1.2-0.6-2.4-1.3-3.5-2.1c1.3,0.3,2.6,0.9,3.8,1.6
		C180.3,328.6,181.4,329.4,182.4,330.4z"/>
	<path class="st3" d="M134.1,289.1c-0.3-1.4-0.4-2.7-0.4-4.1c-0.1-1.4-0.1-2.8,0.1-4.1c0.3,1.3,0.5,2.7,0.4,4.1
		C134.4,286.3,134.4,287.7,134.1,289.1z"/>
	<path class="st3" d="M164.7,261.7c-0.5-1.9-0.8-3.8-1-5.7c-0.3-1.9-0.5-3.8-0.5-5.8c0.5,1.9,0.8,3.8,1,5.7
		C164.5,257.8,164.7,259.8,164.7,261.7z"/>
	<path class="st3" d="M168,278.7c-0.3-2-0.4-4-0.4-6.1c-0.1-2-0.1-4.1,0.2-6.1c0.3,2,0.4,4,0.3,6.1
		C168.3,274.7,168.2,276.7,168,278.7z"/>
	<path class="st3" d="M147.9,281.1c-1-3.7-1.3-7.6-0.8-11.4c0.1,0,0.1,2.5,0.4,5.7S148,281.1,147.9,281.1z"/>
	<path class="st3" d="M154.7,297.9c-0.6-1.7-0.9-3.5-1-5.3c-0.2-1.8-0.2-3.6,0.1-5.4c0.2,1.8,0.4,3.6,0.5,5.4
		C154.5,295.5,154.9,297.8,154.7,297.9z"/>
	<path class="st3" d="M157.7,273.8c-0.3-3.9-0.3-7.8,0-11.7C158.1,266.1,158.1,270,157.7,273.8z"/>
	<path class="st3" d="M149.4,253.7c0.4,2.9,0.4,5.9,0,8.8C149.1,259.6,149.1,256.6,149.4,253.7z"/>
	<path class="st3" d="M157.9,239c0.4,2.6,0.5,5.2,0.2,7.8c-0.3-1.3-0.4-2.6-0.3-3.9C157.6,241.6,157.7,240.3,157.9,239z"/>
	<path class="st3" d="M173.4,255.2c-0.4-2.7-0.7-5.5-0.8-8.3c-0.3-2.8-0.3-5.5-0.3-8.3c0.4,2.7,0.7,5.5,0.8,8.3
		C173.4,249.7,173.5,252.4,173.4,255.2z"/>
	<path class="st3" d="M178.5,284.4c-0.3-3.1-0.3-6.2-0.3-9.2c-0.1-3.1,0-6.2,0.3-9.2c0.3,3.1,0.4,6.2,0.3,9.2
		C178.8,278.2,178.7,281.3,178.5,284.4z"/>
	<path class="st3" d="M169.4,299.3c-0.3-4.3-0.3-8.7,0-13C169.7,290.6,169.7,295,169.4,299.3z"/>
	<path class="st3" d="M177.7,308.1c-0.3-0.8-0.3-1.7-0.3-2.5c-0.1-0.8,0-1.7,0.3-2.5c0.3,0.8,0.3,1.7,0.3,2.5
		C178,306.4,177.9,307.3,177.7,308.1z"/>
	<path class="st3" d="M183.2,246.8c0.3,3.9,0.3,7.9,0,11.8C182.8,254.7,182.8,250.7,183.2,246.8z"/>
	<path class="st3" d="M177.5,226.2c0.3,2.6,0.3,5.2,0.3,7.9c0.1,2.6,0,5.3-0.3,7.9c-0.3-2.6-0.3-5.2-0.3-7.9
		S177.3,228.8,177.5,226.2z"/>
	<path class="st3" d="M166.8,228.3c0.3,3.6,0.3,7.1,0,10.7C166.5,235.4,166.5,231.8,166.8,228.3z"/>
	<path class="st3" d="M191.4,252.7c-0.7-4.3-0.8-8.7-0.2-13c0.1,0,0.1,2.9,0.2,6.5S191.5,252.7,191.4,252.7z"/>
	<path class="st3" d="M196.1,263.7c-0.3-4.4-0.3-8.8,0-13.2C196.4,254.8,196.4,259.3,196.1,263.7z"/>
	<path class="st3" d="M198.9,282.9c-0.3-4.5-0.3-9.1,0-13.6C199.3,273.8,199.3,278.3,198.9,282.9z"/>
	<path class="st3" d="M192.3,293.4c-0.3-4.8-0.3-9.7,0-14.5C192.7,283.8,192.7,288.6,192.3,293.4z"/>
	<path class="st3" d="M187.2,305.6c-0.3-5.1-0.3-10.2,0-15.3c0.3,2.5,0.4,5.1,0.3,7.6C187.5,300.5,187.4,303,187.2,305.6z"/>
	<path class="st3" d="M198.5,299.2c-0.3-3-0.3-5.9,0-8.9C198.9,293.3,198.9,296.3,198.5,299.2z"/>
	<path class="st3" d="M209.7,320.8c-2.6-0.8-5.2-1.8-7.6-2.9c-2.5-1-5-2.1-7.4-3.4c2.6,0.8,5.1,1.8,7.6,2.9
		C204.8,318.4,207.3,319.6,209.7,320.8z"/>
	<path class="st3" d="M222.9,316.8c-2.8-0.7-5.5-1.6-8.2-2.6c-2.7-0.9-5.4-1.9-8-3.1c2.8,0.7,5.5,1.6,8.2,2.6
		C217.6,314.6,220.3,315.6,222.9,316.8z"/>
	<path class="st3" d="M213.6,308c-1.9-0.7-3.7-1.5-5.5-2.5c-1.8-0.8-3.6-1.8-5.2-3c1.9,0.7,3.7,1.5,5.5,2.5
		C210.2,305.8,211.9,306.8,213.6,308z"/>
	<path class="st3" d="M125.5,226.1c0.1,0.1-1.5,1.6-3.1,3.7s-2.5,4-2.7,3.9c0.5-1.6,1.2-3,2.3-4.3C123,228.1,124.2,227,125.5,226.1z
		"/>
	<path class="st3" d="M139.2,229.9c-0.5-1-0.8-2-0.9-3.1c-0.3-1-0.4-2.1-0.4-3.2c0.5,1,0.8,2,0.9,3.1
		C139.1,227.7,139.3,228.8,139.2,229.9z"/>
	<path class="st2" d="M196.5,333.2l66.2-32.1c6.7-3.3,14.7-2.9,21.1,1l0,0c10.4,6.3,13.6,19.9,7.3,30.2c-0.6,1-1.3,1.9-2.1,2.8
		l-28.7,33.5l-73.2,10.1l-6.9-41.4l8.1-12.6L196.5,333.2z"/>
	<path class="st8" d="M236.4,346.9c-0.2,0.3-0.5,0.5-0.8,0.7c-0.5,0.4-1.3,1-2.3,1.6c-2,1.4-4.8,3.2-7.9,5.1s-6,3.5-8.2,4.6
		c-1.1,0.6-1.9,1-2.6,1.3c-0.3,0.2-0.7,0.3-1,0.4c0.3-0.2,0.6-0.4,0.9-0.6l2.5-1.4c2.1-1.2,5-2.9,8.1-4.8s6-3.6,8-4.9l2.4-1.5
		C235.8,347.2,236.1,347.1,236.4,346.9z"/>
	<path class="st2" d="M96.7,349.4c0,0,6.6-31.7,10-36.6s10.5-15.8,19.5-16.9s27.4,9.7,30.8,13.9c8.5,10.8,62,67.4,61.3,66.7
		L201,388.3l-18.2-5.8h-52.3C130.5,382.6,94.3,376.5,96.7,349.4z"/>
	<path class="st8" d="M182.8,382.6c-0.3,0-0.5,0-0.8,0c-0.8-0.1-1.5-0.2-2.3-0.4c-2.8-0.7-5.4-1.6-8-2.8c-8.4-4-16.3-9-23.5-14.8
		c-7.4-5.6-14.5-11.6-21.1-18.2c-2-2-3.8-4.1-5.5-6.4c-0.5-0.6-0.9-1.3-1.2-2c-0.1-0.2-0.3-0.5-0.4-0.7c0.2,0.2,0.3,0.4,0.5,0.6
		c0.3,0.4,0.7,1.1,1.3,1.9c1.7,2.2,3.6,4.3,5.6,6.3c6.7,6.4,13.7,12.5,21.1,18c7.2,5.8,15.1,10.8,23.4,14.8c2.5,1.2,5.1,2.2,7.9,3
		c1,0.2,1.7,0.4,2.2,0.5C182.3,382.5,182.6,382.5,182.8,382.6z"/>
	<path class="st8" d="M159.4,375.5c-0.2,0.2-0.4,0.3-0.7,0.4l-2,1.1c-0.9,0.5-2,0.9-3.3,1.5c-0.6,0.3-1.4,0.5-2.1,0.8
		c-0.8,0.3-1.6,0.6-2.4,0.8c-4,1.1-8.1,1.8-12.2,1.8c-5.1,0.1-10.2-0.5-15.1-2c-4.9-1.4-9.5-3.6-13.7-6.5c-0.9-0.7-1.9-1.3-2.7-2.1
		c-0.8-0.7-1.6-1.5-2.3-2.3c-1.2-1.5-2.3-3.1-3.2-4.8c-1.3-2.5-2.3-5.1-2.7-7.9c-0.1-0.8-0.2-1.5-0.2-2.3c0-0.3,0-0.5,0-0.8
		c0.1,0,0,1.1,0.4,3c0.5,2.7,1.5,5.3,2.8,7.8c0.9,1.7,2,3.3,3.2,4.7c0.7,0.8,1.4,1.6,2.3,2.2c0.8,0.7,1.8,1.3,2.7,2
		c4.2,2.8,8.8,5,13.6,6.4s9.9,2.1,14.9,2c4.1,0,8.2-0.6,12.2-1.7c0.9-0.2,1.6-0.5,2.4-0.7s1.5-0.5,2.1-0.7c1.3-0.5,2.4-1,3.3-1.4
		l2-1C158.9,375.7,159.1,375.6,159.4,375.5z"/>
	<path class="st8" d="M216.7,374.6c-0.1,0.1-13.1-13.6-29-30.5s-28.7-30.8-28.6-30.9s13.1,13.6,29,30.5S216.8,374.5,216.7,374.6z"/>
	<path class="st5" d="M162.8,374.3c0,0-11.8,4.8-10.6,10.3s7.3,8.1,13.5,7.5s17.5-5.7,17.5-5.7l5.8-3.1c0,0-7.1-0.1-10.7-1.4
		C174.2,380.5,162.8,374.3,162.8,374.3z"/>
	<path class="st8" d="M177.4,384l42,6.6l88.7-8.8l-48.6-13.3l-82,11.8c-0.9,0.1-1.6,0.9-1.6,1.9l0,0
		C175.8,383.1,176.5,383.9,177.4,384z"/>
	<path class="st8" d="M230.7,323.8l-10.2,60.1c-0.5,2.8,1.5,5.5,4.3,6c0.4,0.1,0.9,0.1,1.3,0l81.9-8.2c2.3-0.2,4.2-2,4.6-4.2
		l11-60.8c0.5-2.8-1.4-5.5-4.2-6.1c-0.5-0.1-1-0.1-1.5-0.1l-82.8,8.9C232.9,319.8,231.1,321.5,230.7,323.8z"/>
	<path class="st2" d="M175.8,382.1h0.2l0.6,0.1l2.5,0.4l9.2,1.4l31.3,4.9l-0.3,0.2c0.5-3.1,1-6.4,1.6-9.7
		c2.5-14.8,4.7-28.1,6.3-37.9c0.8-4.8,1.5-8.7,2-11.5c0.2-1.3,0.4-2.4,0.6-3.1c0.1-0.3,0.1-0.6,0.2-0.8c0-0.1,0-0.2,0.1-0.3
		c0,0.1,0,0.2,0,0.3c0,0.2-0.1,0.5-0.1,0.8c-0.1,0.8-0.3,1.8-0.5,3.1c-0.4,2.8-1.1,6.7-1.8,11.5c-1.6,9.7-3.8,23.1-6.2,37.9
		c-0.6,3.3-1.1,6.6-1.6,9.7v0.3h-0.3l-31.3-5l-9.2-1.5l-2.5-0.4l-0.6-0.1L175.8,382.1z"/>
	<path class="st3" d="M281.8,349.8c0,3.3-2.4,5.9-5.3,5.9s-5.3-2.6-5.3-5.9s2.4-5.9,5.3-5.9S281.8,346.6,281.8,349.8z"/>
	<path class="st2" d="M158.4,186.3c2.1,3.1,4.3,6.3,5.4,9.9s1.3,7.7-0.5,11c-1.5,2.7-4.3,4.9-4.8,8c-0.8,5.3,5.6,9.2,6,14.5
		c0.3,3-1.5,5.9-3.4,8.2s-4.3,4.5-5.6,7.2s-1.2,6.4,1.1,8.4c-2.9-0.8-5.9,2.3-8.8,1.3c-2.4-0.8-3.1-3.9-3.3-6.5
		c-1.2,1.6-1.6,3.6-1.1,5.5c-4.5-4.7-5.5-11.8-2.5-17.5c1.8-3.3,4.8-6.1,4.8-9.8c-0.1-4-3.8-7-4.9-10.9c-0.7-2.7-0.1-5.5,0.7-8.1
		s1.8-5.3,1.9-8s-0.1-3.9-2.5-5.3"/>
	<path class="st8" d="M151.1,253h-0.2c-0.2,0-0.4-0.1-0.6-0.2c-0.8-0.3-1.4-0.9-1.9-1.6c-0.7-1.1-1.1-2.5-1.1-3.8
		c0.1-1.8,0.8-3.5,1.8-4.9c1.1-1.6,2.6-3.2,3.9-5s2.7-3.9,2.7-6.5s-1.4-5-2.9-7.2s-3.4-4.7-3.9-7.8c-0.3-1.5,0-3.1,0.6-4.4
		c0.7-1.3,1.6-2.4,2.6-3.5c1-0.9,1.9-1.9,2.7-3c0.8-1,1.3-2.2,1.6-3.5c0.2-1.2-0.1-2.4-0.8-3.4s-1.4-1.9-2.2-2.8
		c-1.4-1.6-2.4-3.6-2.7-5.8c-0.3-1.8-0.1-3.6,0.6-5.2c0.5-1.2,1.2-2.4,2.1-3.4c0.6-0.6,1.2-1.2,1.9-1.6c0.2-0.1,0.4-0.2,0.6-0.3
		c0.1-0.1,0.2-0.1,0.2-0.1c-0.9,0.6-1.8,1.3-2.5,2.2c-0.9,1-1.5,2.1-2,3.3c-0.6,1.6-0.8,3.4-0.5,5.1c0.3,2.1,1.3,4,2.7,5.5
		c0.8,0.9,1.6,1.8,2.2,2.8c0.7,1.1,1,2.4,0.9,3.7c-0.2,1.3-0.8,2.6-1.6,3.7c-0.8,1.1-1.8,2.1-2.8,3.1s-1.8,2.1-2.5,3.3
		c-0.6,1.3-0.8,2.7-0.6,4.1c0.5,2.9,2.3,5.3,3.8,7.6c0.8,1.1,1.5,2.3,2.1,3.6c0.6,1.2,0.9,2.6,0.9,3.9s-0.3,2.6-0.9,3.7
		c-0.5,1.1-1.2,2.1-1.9,3c-1.4,1.8-2.9,3.3-4,4.9c-1,1.4-1.7,3-1.8,4.7c-0.1,1.3,0.3,2.6,0.9,3.7c0.4,0.7,1,1.3,1.8,1.7
		C150.8,252.9,151.1,252.9,151.1,253z"/>
	<path class="st6" d="M221.2,344.2c-2.9-2.6,0.4-5.6-4.9-10.5c-3.9-3.7-11.3-10-25.6-14.8l-9,16l15.6,5l-0.1,10.2
		c0,2.1,1.6,3.7,3.7,3.8h0.1l8.1-0.1c0,0-2.4,10-2,10.6c0.6,1,2,1.3,3,0.7c0.4-0.3,0.7-0.6,0.9-1.1c0.3-1.3,7-17.5,7-17.5
		s4.4,3.8,5,1.6C222.9,348.1,224.1,346.8,221.2,344.2z"/>
	<path class="st7" d="M199.5,354.2c0,0,0.4-0.3,0.9-0.8c0.7-0.7,1.2-1.5,1.5-2.5c0.3-0.9,0.4-1.9,0.3-2.9c-0.1-0.7-0.3-1.2-0.2-1.2
		c0.3,0.3,0.4,0.8,0.5,1.2c0.2,1,0.1,2.1-0.2,3c-0.3,1-0.9,1.9-1.7,2.6C200.3,353.9,199.9,354.1,199.5,354.2z"/>
	<path class="st7" d="M204.7,353.8c0.7-1,1.2-2,1.6-3.1c0.2-1.1,0.3-2.3,0.1-3.5c0.2,0.3,0.3,0.6,0.4,1c0.3,1.7-0.2,3.5-1.3,4.9
		C205,353.6,204.7,353.9,204.7,353.8z"/>
	<path class="st7" d="M210.9,348c0.1,0,0.1,0.3,0.2,0.9c0,0.7-0.1,1.4-0.4,2.1c-0.3,0.7-0.7,1.3-1.2,1.8c-0.4,0.4-0.7,0.5-0.8,0.5
		c0.6-0.7,1.2-1.5,1.6-2.4C210.6,349.9,210.9,348.9,210.9,348z"/>
</g>
<g id="freepik--Plant--inject-50">
	<path class="st5" d="M394.4,326c0.9-3.1,2.8-6.1,5.8-7.4s6.7-0.6,9.9,0.6s6.3,2.7,9.6,2.9s7.2-1.4,8.2-4.6c1-3-0.9-6.3-3.2-8.5
		c-8-7.6-20.6-7.4-28.3,0.6c-2,2.1-3.5,4.5-4.4,7.2"/>
	<g class="st10">
		<path d="M394.4,326c0.9-3.1,2.8-6.1,5.8-7.4s6.7-0.6,9.9,0.6s6.3,2.7,9.6,2.9s7.2-1.4,8.2-4.6c1-3-0.9-6.3-3.2-8.5
			c-8-7.6-20.6-7.4-28.3,0.6c-2,2.1-3.5,4.5-4.4,7.2"/>
	</g>
	<path class="st5" d="M367.7,339.6c-4.9-4.7-4.7-12.9-2.2-19.2s7.8-11.2,13.9-14.5c11.9-6.2,26-6.7,38.2-1.2
		c-6,0.3-11.5,3.5-14.7,8.6c-2.7,4.5-3.3,10-5.5,14.7C392.1,339.1,379.1,344.2,367.7,339.6"/>
	<path class="st5" d="M365.3,311.4c-5.5-6.5-6.2-16.8-5.4-25.2s2.8-16.9,1.4-25.3c-0.8-5-2.7-9.7-3.4-14.6s0.3-10.6,4.1-13.8
		c4.4-3.7,11.4-2.8,16,0.6s7.3,8.9,9.2,14.3c4.3,11.9,5.9,25.1,2.3,37.3s-11.8,23-23.9,26.7"/>
	<path class="st2" d="M362.7,364.3c0-0.2,0-0.5,0-0.7c0-0.5,0-1.2,0-2.1c0.1-1.9,0.2-4.5,0.7-7.8c0.5-3.9,1.2-7.7,2.1-11.5
		c1.1-4.6,2.9-9.1,5.2-13.3c2.3-4.2,5.2-8,8.5-11.4c2.7-2.8,5.7-5.3,9-7.5c1.4-0.9,2.7-1.7,3.8-2.3s2.2-1.1,3-1.5l2-0.8
		c0.2-0.1,0.5-0.2,0.7-0.3c-0.2,0.1-0.4,0.2-0.7,0.3l-1.9,0.9c-0.8,0.4-1.8,1-3,1.6s-2.4,1.4-3.8,2.4c-7.1,4.9-13,11.3-17.3,18.8
		c-5,8.8-6.4,18-7.4,24.5c-0.5,3.3-0.7,5.9-0.8,7.8l-0.1,2.1C362.8,363.8,362.7,364.1,362.7,364.3z"/>
	<path class="st5" d="M315.5,285.9c-10.1,6.1-10.1,11.7-8.4,16.9s7.9,8.9,13.1,6.9c2.9-1.1,5-3.6,6.8-6.2s3.5-5.3,6-7.1
		s6.2-2.5,8.7-0.7"/>
	<g class="st10">
		<path d="M315.5,285.9c-10.1,6.1-10.1,11.7-8.4,16.9s7.9,8.9,13.1,6.9c2.9-1.1,5-3.6,6.8-6.2s3.5-5.3,6-7.1s6.2-2.5,8.7-0.7"/>
	</g>
	<path class="st5" d="M308,292.6c2.6-3.7,9.2-4.7,13.3-2.9s7.1,5.4,9.9,9s5.3,7.4,9.1,9.9s9,3.4,12.7,0.9c2.4-1.8,4-4.5,4.3-7.5
		s0.1-5.9-0.6-8.8c-0.9-4.2-2.4-8.7-5.8-11.4c-3.8-3-9-3.1-13.9-3c-5.5,0.2-11.2,0.6-16.4,2.5S310.2,287.5,308,292.6"/>
	<path class="st2" d="M354.3,356.2c0,0,0-0.1,0-0.2v-0.7c0-0.6,0-1.5-0.1-2.5c-0.1-2.2-0.2-5.4-0.3-9.2s-0.3-8.5-0.6-13.7
		s-0.7-10.8-1.5-16.7c-0.3-2.9-0.9-5.7-1.7-8.5c-0.8-2.6-1.8-5-3.1-7.4c-1.1-2.2-2.4-4.2-3.9-6.1c-1.3-1.7-2.7-3.2-4.3-4.7
		c-2.3-2.1-4.8-3.8-7.6-5.2c-0.5-0.2-0.9-0.5-1.3-0.6l-1-0.4l-0.6-0.2l-0.2-0.1h0.2l0.6,0.2l1,0.3c0.4,0.1,0.8,0.4,1.3,0.6
		c2.8,1.3,5.4,3,7.7,5.1c1.6,1.4,3,3,4.4,4.7c1.5,1.9,2.8,4,4,6.2c1.3,2.4,2.3,4.9,3.1,7.5c0.8,2.8,1.4,5.7,1.7,8.5
		c0.8,5.9,1.2,11.6,1.4,16.7s0.4,9.8,0.5,13.7s0.1,7.1,0.1,9.3v2.5c0,0.3,0,0.5,0,0.7C354.4,356.1,354.3,356.2,354.3,356.2z"/>
	<path class="st2" d="M357.9,360.8c-0.5-1.4-0.9-2.9-1.1-4.3c-0.7-4-0.9-8.1-0.5-12.2c0.6-6,1.9-12,3.9-17.7
		c2.1-6.5,4.9-13.5,7.3-21c1.2-3.6,2.2-7.3,2.9-11.1c0.7-3.5,1.1-7,1.4-10.6c0.5-6,0.6-12.1,0.3-18.1c-0.2-5.1-0.5-9.3-0.6-12.2
		c-0.1-1.4-0.1-2.5-0.2-3.3c0-0.4,0-0.6,0-0.9c0-0.1,0-0.2,0-0.3c0,0.1,0,0.2,0,0.3c0,0.2,0,0.5,0.1,0.9c0.1,0.8,0.2,1.9,0.3,3.3
		c0.2,2.9,0.5,7,0.8,12.2c0.3,6,0.2,12.1-0.2,18.1c-0.5,7.4-2,14.7-4.3,21.8c-2.4,7.5-5.3,14.5-7.3,21c-2,5.7-3.3,11.6-3.9,17.6
		c-0.4,4.1-0.3,8.1,0.3,12.2c0.3,1.4,0.5,2.5,0.7,3.2c0.1,0.4,0.1,0.6,0.2,0.8L357.9,360.8z"/>
	<polygon class="st8" points="383,365.4 335.5,365.4 334.4,356.2 383,356.2 	"/>
	<polygon class="st8" points="340.6,364.3 346.6,391.8 372.4,391.8 377.9,364.3 	"/>
	<path class="st8" d="M383,365.4c0,0.1-10.5,0.2-23.3,0.2s-23.3-0.2-23.3-0.3s10.4-0.2,23.3-0.2S383,365.3,383,365.4z"/>
	<path class="st2" d="M374.9,378.9c-1.3-1-2.7-1.8-4.2-2.4c-1.6-0.6-3.3-1-5.1-1c-2.1,0-4.3,0.4-6.3,1.1c-2.2,0.7-4.2,1.6-6.2,2
		c-1.7,0.4-3.6,0.4-5.3,0.2c-1.2-0.2-2.3-0.5-3.4-1.1c-0.3-0.2-0.6-0.3-0.8-0.5c-0.1-0.1-0.2-0.1-0.3-0.2c0,0,0.4,0.2,1.2,0.6
		c1.1,0.5,2.2,0.8,3.4,0.9c1.7,0.2,3.5,0.1,5.2-0.3c1.9-0.5,3.9-1.3,6.1-2.1c2-0.8,4.2-1.2,6.4-1.1c1.8,0.1,3.6,0.4,5.2,1.1
		c1.1,0.5,2.1,1.1,3.1,1.8c0.3,0.2,0.5,0.4,0.7,0.6C374.8,378.8,374.9,378.9,374.9,378.9z"/>
	<path class="st4" d="M374.5,380.8c-1.2-0.9-2.6-1.7-4-2.4c-1.6-0.6-3.2-1-4.9-1c-2.1,0-4.1,0.4-6,1.1c-2.1,0.7-4.1,1.5-5.9,2
		c-1.7,0.5-3.4,0.7-5.1,0.6c-1.2-0.1-2.3-0.4-3.4-0.9c-0.3-0.2-0.5-0.3-0.8-0.5c-0.2-0.1-0.3-0.2-0.3-0.2s0.4,0.2,1.1,0.6
		c1,0.4,2.2,0.7,3.3,0.7c1.7,0.1,3.4-0.2,5-0.6c1.8-0.5,3.8-1.3,5.9-2c2-0.7,4.1-1.1,6.2-1.1c1.7,0.1,3.4,0.4,5,1.1
		c1.1,0.5,2.1,1.1,3,1.8c0.3,0.2,0.5,0.4,0.7,0.6C374.4,380.7,374.5,380.7,374.5,380.8z"/>
	<path class="st4" d="M375.3,377.1c-1.3-1-2.8-1.8-4.3-2.5c-1.7-0.7-3.4-1.1-5.2-1.3c-2.2,0-4.4,0.3-6.5,1.1
		c-2.1,0.8-4.2,1.5-6.4,2.1c-1.8,0.3-3.7,0.3-5.5,0c-1.2-0.2-2.4-0.6-3.5-1.1c-0.3-0.2-0.6-0.3-0.9-0.5c-0.2-0.1-0.3-0.2-0.3-0.2
		s0.4,0.3,1.2,0.6c1.1,0.5,2.3,0.8,3.5,1c1.8,0.3,3.6,0.2,5.4-0.1c2.1-0.6,4.2-1.3,6.3-2.1c2.1-0.8,4.4-1.2,6.6-1.1
		c1.8,0.1,3.6,0.6,5.3,1.4c1.1,0.5,2.2,1.2,3.2,1.9c0.3,0.2,0.5,0.4,0.8,0.7C375.3,377,375.4,377.1,375.3,377.1z"/>
	<path class="st2" d="M383.5,365.4c0,0.1-10.7,0.2-23.9,0.2s-23.9-0.1-23.9-0.2s10.7-0.2,23.9-0.2S383.5,365.3,383.5,365.4z"/>
</g>
<text transform="matrix(1 0 0 1 163.8 103.9)" class="st5 st11 st12">Статус</text>
</svg>
