<?xml version="1.0" encoding="utf-8"?>
<!-- Generator: Adobe Illustrator 25.2.3, SVG Export Plug-In . SVG Version: 6.00 Build 0)  -->
<svg version="1.1" id="Слой_1" xmlns="http://www.w3.org/2000/svg" xmlns:xlink="http://www.w3.org/1999/xlink" x="0px" y="0px"
	 viewBox="0 0 512 512" style="enable-background:new 0 0 512 512;" xml:space="preserve">
<style type="text/css">
	.st0{fill:#A9A9A9;}
	.st1{fill:#20B2AA;}
</style>
<path class="st0" d="M92.4,16h146.7v53.3H92.4V16z"/>
<circle class="st1" cx="352" cy="256" r="138.7"/>
<path d="M352,394.7c-76.5,0-138.7-62.2-138.7-138.7S275.5,117.3,352,117.3S490.7,179.5,490.7,256S428.5,394.7,352,394.7z M352,149.3
	c-58.8,0-106.7,47.9-106.7,106.7S293.2,362.7,352,362.7S458.7,314.8,458.7,256S410.8,149.3,352,149.3z"/>
<path d="M389.3,309.3c-4.1,0-8.2-1.6-11.3-4.7l-37.3-37.3c-3-3-4.7-7.1-4.7-11.3v-58.7c0-8.8,7.2-16,16-16s16,7.2,16,16v52
	l32.6,32.6c6.3,6.3,6.3,16.4,0,22.6C397.5,307.8,393.4,309.3,389.3,309.3z"/>
<path d="M218.7,85.3h-96c-20.6,0-37.3-16.7-37.3-37.3c0-8.8-7.2-16-16-16H58.7c-8.8,0-16-7.2-16-16s7.2-16,16-16h10.7
	c26.5,0,48,21.5,48,48c0,2.9,2.4,5.3,5.3,5.3h96c2.9,0,5.3-2.4,5.3-5.3c0-26.5,21.5-48,48-48h10.7c8.8,0,16,7.2,16,16s-7.2,16-16,16
	H272c-8.8,0-16,7.2-16,16C256,68.6,239.3,85.3,218.7,85.3z"/>
<path d="M284.1,512H57.2C25.7,512,0,486.1,0,454.3V57.7C0,25.9,25.7,0,57.2,0h226.9c31.6,0,57.2,25.9,57.2,57.7v10.8
	c0,8.8-7.2,16-16,16s-16-7.2-16-16V57.7c0-14.2-11.3-25.7-25.2-25.7H57.2C43.3,32,32,43.5,32,57.7v396.5c0,14.2,11.3,25.7,25.2,25.7
	h226.9c13.9,0,25.2-11.5,25.2-25.7v-10.8c0-8.8,7.2-16,16-16s16,7.2,16,16v10.8C341.3,486.1,315.6,512,284.1,512L284.1,512z"/>
</svg>
